<svg width="252" height="140" viewBox="0 0 252 140" fill="none" xmlns="http://www.w3.org/2000/svg">
<g id="chicka">
<path id="vector" d="M236.145 56.7913L235.418 58.099M236.145 56.7913C236.145 56.7913 239.293 53.0385 239.777 50.1075C240.155 47.8231 239.177 44.4468 238.857 43.4321C238.806 43.2701 238.901 43.0971 239.065 43.055L250.51 40.1272C250.77 40.0608 250.813 39.7058 250.576 39.5799C249.312 38.9068 246.413 37.3188 242.974 35.1416C236.781 31.2208 228.474 25.6186 221.324 22.2099C212.825 18.1578 205.425 18.1909 198.076 15.8167C188.631 12.7653 183.616 7.14871 172.648 4.33793C143.734 -3.0724 119.614 2.59431 92.5879 14.073C68.9482 24.1136 52.7756 38.1929 45.8012 56.7913C44.2756 60.8597 30.0245 58.4762 21.6814 62.8939C9.1912 69.5076 4.93755 77.7888 1.62991 90.7916C-1.15549 101.741 3.5043 119.538 3.66013 120.127C3.66505 120.146 3.66338 120.141 3.67199 120.158C3.94336 120.701 11.1867 135.06 19.9377 138.45C26.0404 140.814 9.11016 104.708 19.9377 88.4668C29.8182 73.6462 47.5448 79.4582 47.5448 79.4582M236.145 56.7913C236.145 56.7913 239.592 58.091 241.521 59.4067C242.714 60.221 244.175 61.6201 244.932 62.3749C245.119 62.5603 244.978 62.886 244.715 62.8916C243.887 62.909 242.37 62.9935 240.247 63.3246C240.225 63.328 240.203 63.3339 240.182 63.3422C234.802 65.5127 225.528 66.3812 220.452 66.3812C210.795 66.3812 205.196 68.5607 195.751 67.5436M195.751 67.5436C195.751 66.5222 195.751 64.9281 195.751 64.9281M195.751 67.5436C196.524 73.012 196.247 76.3698 194.589 81.6377C192.955 86.8272 187.614 93.6976 187.614 93.6976M187.614 93.6976C187.614 93.6976 188.14 101.48 184.708 103.578C182.702 104.804 181.815 105.132 178.751 104.45C176.426 103.932 174.101 96.087 171.05 90.7916C168.659 86.6418 166.11 83.202 162.768 81.6377C155.939 78.4411 144.896 88.1762 133.127 94.4241C130.072 96.046 125.344 96.4875 122.292 96.5934C121.94 96.6055 121.842 97.3062 122.177 97.41C126.226 98.662 133.564 101.35 137.34 105.322C142.027 110.251 148.819 118.108 144.896 121.014C143.315 122.185 140.482 121.794 138.77 121.404C138.459 121.333 138.2 121.795 138.431 122.015C140.523 124.009 144.896 128.561 144.896 131.766C144.896 135.455 141.353 138.557 137.34 137.433C134.559 136.654 132.85 133.241 130.366 131.766C121.067 126.245 96.9469 123.63 93.4597 121.014C90.5545 118.835 93.1297 113.073 90.2631 110.843C87.6477 108.809 74.2946 108.157 65.2715 101.834C56.1413 95.4373 47.5448 79.4582 47.5448 79.4582M187.614 93.6976L182.674 84.1078M47.5448 79.4582L50.4508 78.7317M182.674 84.1078C182.674 84.1078 182.674 73.5009 180.64 72.1932C178.42 70.7658 175.499 71.188 174.537 73.6462C173.23 76.9881 182.674 84.1078 182.674 84.1078Z" stroke="#414141" stroke-width="1.1624" stroke-linecap="round" stroke-linejoin="round"/>
<g id="eye">
<g id="eclipse">
<ellipse cx="223.94" cy="44.1502" rx="1.453" ry="1.5983" fill="#414141" fill-opacity="0.6"/>
<path d="M225.103 44.1502C225.103 44.8991 224.557 45.4579 223.94 45.4579C223.324 45.4579 222.778 44.8991 222.778 44.1502C222.778 43.4013 223.324 42.8425 223.94 42.8425C224.557 42.8425 225.103 43.4013 225.103 44.1502Z" stroke="#414141" stroke-opacity="0.8" stroke-width="0.581201" stroke-linecap="round" stroke-linejoin="round"/>
</g>
<g id="eclipse_2">
<path d="M223.359 43.8596C223.224 44.4135 223.695 45.3126 223.214 45.3126C222.732 45.3126 222.487 44.7271 222.487 44.0049C222.487 43.2827 223.314 42.6972 223.795 42.6972C224.276 42.6972 223.474 43.3886 223.359 43.8596Z" fill="#414141" fill-opacity="0.8"/>
<path d="M223.077 43.7906C223.031 43.979 223.039 44.1797 223.058 44.3518C223.07 44.4574 223.088 44.5765 223.105 44.6807C223.114 44.7378 223.122 44.7903 223.128 44.8338C223.139 44.9137 223.144 44.9717 223.145 45.0127C223.071 44.9916 222.997 44.9308 222.929 44.7969C222.836 44.6156 222.778 44.3393 222.778 44.0049C222.778 43.7561 222.923 43.502 223.153 43.2976C223.253 43.2088 223.358 43.1396 223.457 43.0893C223.404 43.1652 223.346 43.249 223.299 43.3226C223.212 43.4575 223.118 43.6232 223.077 43.7906ZM223.81 42.9886C223.81 42.9887 223.808 42.9886 223.805 42.9881C223.808 42.9883 223.81 42.9885 223.81 42.9886Z" stroke="#414141" stroke-opacity="0.8" stroke-width="0.581201" stroke-linecap="round" stroke-linejoin="round"/>
</g>
</g>
<g id="eye_2">
<g id="eclipse_3">
<ellipse cx="223.359" cy="55.6289" rx="1.453" ry="1.7436" fill="#414141" fill-opacity="0.6"/>
<path d="M224.522 55.6289C224.522 56.4833 223.954 57.0819 223.359 57.0819C222.765 57.0819 222.197 56.4833 222.197 55.6289C222.197 54.7746 222.765 54.1759 223.359 54.1759C223.954 54.1759 224.522 54.7746 224.522 55.6289Z" stroke="#414141" stroke-opacity="0.8" stroke-width="0.581201" stroke-linecap="round" stroke-linejoin="round"/>
</g>
<g id="eclipse_4">
<path d="M222.778 55.193C222.643 55.747 223.26 56.9366 222.778 56.9366C222.297 56.9366 222.052 56.0606 222.052 55.3383C222.052 54.6161 222.733 54.0306 223.214 54.0306C223.696 54.0306 222.893 54.7221 222.778 55.193Z" fill="#414141" fill-opacity="0.8"/>
<path d="M222.496 55.124C222.447 55.3235 222.47 55.5518 222.502 55.7465C222.525 55.8856 222.558 56.0356 222.588 56.1713C222.601 56.2282 222.613 56.2824 222.624 56.3324C222.645 56.4351 222.66 56.5182 222.668 56.5837C222.614 56.5275 222.557 56.4345 222.505 56.3021C222.4 56.0344 222.342 55.6725 222.342 55.3383C222.342 55.0696 222.47 54.812 222.661 54.6164C222.724 54.5518 222.789 54.4983 222.853 54.4555C222.807 54.5222 222.758 54.5929 222.718 54.6561C222.632 54.7909 222.537 54.9566 222.496 55.124ZM222.671 56.729C222.671 56.7289 222.671 56.7284 222.671 56.7274L222.671 56.729ZM223.229 54.322C223.229 54.3221 223.227 54.322 223.224 54.3215C223.227 54.3217 223.229 54.322 223.229 54.322Z" stroke="#414141" stroke-opacity="0.8" stroke-width="0.581201" stroke-linecap="round" stroke-linejoin="round"/>
</g>
</g>
<g id="nose">
<g id="eclipse_5">
<path d="M219.58 50.2528C219.58 51.1355 218.639 51.8511 217.837 51.8511C217.034 51.8511 216.384 51.1355 216.384 50.2528C216.384 49.3701 217.034 48.6545 217.837 48.6545C218.639 48.6545 219.58 49.3701 219.58 50.2528Z" fill="#414141" fill-opacity="0.9"/>
<path d="M219.29 50.2528C219.29 50.5875 219.11 50.9125 218.82 51.1629C218.528 51.4141 218.158 51.5605 217.837 51.5605C217.22 51.5605 216.674 51.0017 216.674 50.2528C216.674 49.5039 217.22 48.9451 217.837 48.9451C218.158 48.9451 218.528 49.0915 218.82 49.3428C219.11 49.5931 219.29 49.9181 219.29 50.2528Z" stroke="#414141" stroke-opacity="0.8" stroke-width="0.581201" stroke-linecap="round" stroke-linejoin="round"/>
</g>
<g id="eclipse_6">
<path d="M217.11 49.6716C216.897 50.5434 217.883 51.4152 217.401 51.4152C216.92 51.4152 216.529 50.8297 216.529 50.1075C216.529 49.3853 217.356 48.7998 217.837 48.7998C218.128 48.9451 217.226 49.2007 217.11 49.6716Z" fill="#414141" fill-opacity="0.6"/>
<path d="M217.026 50.871C216.929 50.7256 216.856 50.5254 216.83 50.2925C216.881 50.5271 216.972 50.7382 217.051 50.9064C217.043 50.8951 217.035 50.8833 217.026 50.871ZM217.246 51.3342C217.246 51.3341 217.246 51.3325 217.245 51.3294C217.246 51.3328 217.246 51.3343 217.246 51.3342ZM217.405 51.1246C217.407 51.1243 217.408 51.1242 217.409 51.1243L217.405 51.1246Z" stroke="#414141" stroke-opacity="0.8" stroke-width="0.581201" stroke-linecap="round" stroke-linejoin="round"/>
</g>
</g>
</g>
</svg>
