<svg width="226" height="103" viewBox="0 0 226 103" fill="none" xmlns="http://www.w3.org/2000/svg">
<g id="chicka">
<path id="vector" d="M87.9771 45.5473C87.9771 45.5473 83.6798 46.0123 80.6615 44.7345C72.661 41.3475 68.8042 35.9093 64.0561 28.4775M87.9771 45.5473C87.9771 45.5473 111.896 41.2477 126.994 43.4571C136.516 44.8506 148.705 48.7774 162.527 46.9408C172.991 45.5503 178.074 41.4099 188.306 38.8123C192.006 37.8729 197.828 36.6018 197.828 36.6018M87.9771 45.5473C87.9771 45.5473 86.8078 43.2615 83.5645 39.2768C80.9215 36.0297 76.3733 31.4985 74.2748 27.4324C69.601 18.3767 68.1262 3.77097 66.6108 2.35026C64.7529 0.608441 61.0369 0.492321 59.4113 2.35026C57.7856 4.2082 60.9368 9.99375 61.9143 14.8913C62.8918 19.7889 64.0561 28.4775 64.0561 28.4775M64.0561 28.4775C63.0081 27.3892 62.1976 26.0835 61.7337 24.6455C59.4113 17.446 54.5342 5.95002 52.2118 4.2082C49.9613 2.52038 45.4767 3.94982 45.4767 6.76286C45.4767 9.20141 51.1616 19.008 52.2118 27.4324C52.8961 32.9224 52.2118 36.0667 52.2118 41.5992C52.2118 55.0693 60.2241 69.1199 56.6244 75.8549C55.2648 78.3988 38.7007 81.9581 29.1037 75.8549C22.2907 71.5222 20.2557 64.4511 15.2852 58.0884C9.91328 51.2117 3.4409 40.438 1.58295 40.438C-0.608021 40.438 3.67312 58.0884 9.47918 67.8426C16.0908 78.9501 18.8093 88.8532 31.0777 92.9247C43.1319 96.9252 61.2692 85.0517 62.8949 86.1897C66.3786 88.6283 79.0711 98.4942 91.3446 100.937C102.8 103.217 109.746 100.047 121.42 99.6598C133.204 99.2686 141.705 99.7473 153.469 98.963C170.888 97.8018 183.196 93.9698 193.183 89.9056C198.829 87.6076 204.447 90.7184 210.136 88.0477C213.814 86.3214 218.381 82.59 220.123 78.758C222.345 73.87 225 63.8945 225 63.8945C225 63.8945 223.499 64.8058 222.445 65.1718C221.395 65.5366 219.658 65.7524 219.658 65.7524L216.407 59.2496C216.407 59.2496 217.806 56.7281 217.917 54.9531C218.02 53.303 217.104 50.7982 217.104 50.7982C214.781 52.9791 213.504 54.1403 210.833 55.5337C210.833 55.5337 204.744 52.434 201.311 52.9791C196.687 53.7132 191.093 59.2496 191.093 59.2496C191.093 59.2496 190.176 56.6221 188.886 55.5337C187.138 54.0585 183.196 54.1403 183.196 54.1403C183.196 54.1403 190.28 46.9408 200.034 44.9667C203.165 44.333 211.188 39.7763 210.136 34.7481C209.729 32.799 209.518 31.8452 207.582 31.3805C204.679 30.6838 204.124 34.7669 201.311 35.7931C199.999 36.2718 197.828 36.6018 197.828 36.6018M166.707 46.1903C166.707 46.1903 171.571 42.5158 177.042 39.7413C180.718 37.8769 184.706 36.6018 187.377 34.7481C190.483 32.5923 193.996 26.703 195.621 26.1224C197.247 25.5418 200.731 26.7357 200.731 28.9093C200.731 31.6962 197.828 36.6018 197.828 36.6018" stroke="#414141" stroke-width="0.928969" stroke-linecap="round" stroke-linejoin="round"/>
</g>
</svg>
