<svg width="240" height="113" viewBox="0 0 240 113" fill="none" xmlns="http://www.w3.org/2000/svg">
<g id="chicka">
<path id="vector" d="M42.143 30.1094C42.143 30.1094 41.2391 34.4538 41.2391 38.5989C41.2391 40.5232 31.4324 43.5198 29.4884 49.4655C28.7478 51.7306 27.9653 54.9228 28.4715 57.2758M42.143 30.1094L43.4989 31.9205M42.143 30.1094C42.143 30.1094 38.7713 24.2439 39.5443 19.922C40.2988 15.7037 45.4487 10.9551 46.3135 10.1829C46.3945 10.1105 46.4452 10.015 46.4609 9.90748L47.7406 1.1302C47.7997 0.724875 48.3243 0.600926 48.5586 0.936945L50.3911 3.56559L52.6937 6.86853C52.8034 7.02588 52.9978 7.09788 53.1837 7.05075C54.3477 6.75573 58.5646 5.77866 61.3509 6.33882C64.1787 6.90729 67.6557 9.48563 68.8413 10.4167C69.0622 10.5902 69.3886 10.5302 69.5288 10.2867L72.2412 5.57659C72.4187 5.26842 72.8604 5.27018 73.0226 5.58669C74.4635 8.39959 79.5598 18.6666 78.977 22.0727C77.8531 28.6409 73.1283 32.8646 77.6211 35.8823C87.5641 42.5607 115.328 39.7129 137.053 49.4655C152.248 56.2868 166.881 70.7458 173.435 70.0666C177.36 69.6598 181.863 69.2454 185.411 71.1986C197.162 77.6663 196.732 87.3776 207.105 89.2938C223.036 92.2368 238.064 96.1011 238.967 106.062C239.107 107.6 238.837 109.165 237.386 109.684C235.804 110.25 229.752 105.759 224.053 104.477C218.517 103.232 209.997 101.726 201.456 99.0441C186.631 94.3901 177.728 78.6693 167.333 80.0277C155.076 81.6293 150.498 98.1386 143.832 100.855C130.778 106.175 106.094 103.006 86.8861 105.383C78.4377 106.428 70.7289 112.627 65.8704 111.948C62.91 111.534 61.0935 108.568 61.9159 105.383C62.7601 102.113 69.1471 100.545 69.1471 100.545M85.4173 87.0278C86.5443 87.5054 87.2879 87.8301 87.501 87.9235C87.5431 87.9419 87.5844 87.9534 87.63 87.9588C88.3498 88.0444 94.7398 88.8524 95.6992 90.6678C96.783 92.7188 94.8529 94.127 92.9875 94.5164C87.5641 95.6483 82.7056 95.6483 75.5874 97.0066C72.7696 97.5443 69.1471 100.545 69.1471 100.545M85.4173 87.0278C81.2084 85.244 71.6514 81.3264 64.4016 79.3485C51.9348 75.9472 43.9019 78.115 31.2962 75.2735C22.2572 73.2361 15.478 76.5187 6.8909 77.7638C1.41163 78.5583 0.308746 75.4671 1.35452 72.5569C2.37141 69.7271 8.36439 67.2699 12.3143 65.7653C13.3517 65.3701 14.5003 65.1099 15.7039 64.9434M85.4173 87.0278C85.4173 87.0278 83.2451 89.8595 81.3497 90.1019C76.0393 90.781 65.8704 90.215 62.5938 92.5921C60.4852 94.1218 60.9778 96.9994 62.5938 99.0441C64.2234 101.106 69.1471 100.545 69.1471 100.545M28.4715 57.2758C29.1391 60.3789 31.2962 62.4714 31.2962 63.5014C31.2962 66.1033 22.5962 63.9894 15.7039 64.9434M28.4715 57.2758C28.4715 57.2758 23.9375 57.6232 21.0144 59.5397C18.0912 61.4561 15.7039 64.9434 15.7039 64.9434" stroke="#414141" stroke-width="0.903901" stroke-linecap="round" stroke-linejoin="round"/>
<g id="eye">
<path id="eclipse" d="M48.4704 13.5836C48.4704 14.173 47.9904 14.7163 47.4536 14.7163C46.9168 14.7163 46.4367 14.173 46.4367 13.5836C46.4367 13.02 46.8924 12.564 47.4536 12.564C48.0147 12.564 48.4704 13.02 48.4704 13.5836Z" fill="#B1B4FF" stroke="#414141" stroke-width="0.45195" stroke-linecap="round" stroke-linejoin="round"/>
<path id="eclipse_2" d="M48.2443 13.1299C48.2443 13.3171 47.9913 13.4689 47.6793 13.4689C47.3673 13.4689 47.1144 13.3171 47.1144 13.1299C47.1144 12.9427 47.3673 12.791 47.6793 12.791C47.9913 12.791 48.2443 12.9427 48.2443 13.1299Z" fill="#414141"/>
</g>
<g id="eye_2">
<path id="eclipse_3" d="M59.6562 16.1866C59.6562 16.4937 59.506 16.838 59.261 17.1087C59.0155 17.38 58.7048 17.5454 58.4133 17.5454C58.1263 17.5454 57.8464 17.3845 57.6301 17.1179C57.414 16.8516 57.2835 16.5047 57.2835 16.1866C57.2835 15.5609 57.7897 15.0543 58.4133 15.0543C59.0607 15.0543 59.6562 15.5834 59.6562 16.1866Z" fill="#B1B4FF" stroke="#414141" stroke-width="0.45195" stroke-linecap="round" stroke-linejoin="round"/>
<ellipse id="eclipse_4" cx="58.5262" cy="15.6202" rx="0.564938" ry="0.338963" fill="#414141"/>
</g>
<g id="nose">
<path id="vector_2" d="M51.408 16.8918C51.408 16.5784 50.6262 16.1866 50.3917 16.1866C50.1571 16.1866 49.4056 16.6567 49.3753 16.8918C49.3449 17.1268 50.0007 17.7763 50.2353 17.832C50.4698 17.8877 51.408 17.2052 51.408 16.8918Z" fill="#B1B4FF" stroke="#414141" stroke-width="0.45195" stroke-linecap="round" stroke-linejoin="round"/>
<path id="vector_3" d="M49.6089 16.8913C49.6089 16.7161 50.3907 16.4212 50.3907 16.4212C50.3907 16.4212 50.0523 16.8114 50.0523 16.8913C50.0523 17.1263 50.3907 17.6581 50.3907 17.6581C50.3907 17.6581 49.6089 17.048 49.6089 16.8913Z" fill="#414141"/>
</g>
<path id="Vector" d="M42.6184 85.7131C37.6676 80.7623 29.6639 80.7623 24.7131 85.7131C19.7623 90.6639 19.7623 98.6676 24.7131 103.618C27.1885 106.094 30.4065 107.331 33.6657 107.331C36.925 107.331 40.143 106.094 42.6184 103.618C47.5279 98.6676 47.5279 90.6639 42.6184 85.7131ZM45.5063 93.5518C44.3099 93.7581 43.1135 94.5007 42.2058 95.6559C41.422 96.6873 40.8856 97.8425 40.3905 98.9977C40.308 99.204 40.2255 99.4102 40.143 99.5753C39.5654 100.854 38.9053 102.174 37.8326 103.041C36.0586 104.526 33.6657 104.485 32.3868 104.32C29.0863 103.907 26.1158 101.927 24.8369 99.204C23.4341 96.2747 24.1355 92.5617 26.4459 90.6226C28.3849 88.9723 31.1078 88.6835 33.7483 88.3948C34.4084 88.3122 35.151 88.2297 35.8111 88.1472C36.8012 87.9822 37.8326 87.7759 38.699 87.1983C39.5242 86.662 40.1017 85.6306 40.1843 84.6817C40.8444 85.1355 41.5045 85.6306 42.0821 86.2494C44.1036 88.3122 45.2588 90.9114 45.5063 93.5518ZM42.0821 103.082C37.4613 107.703 29.9114 107.703 25.2907 103.082C20.6699 98.4613 20.6699 90.9114 25.2907 86.2907C27.601 83.9803 30.654 82.8251 33.707 82.8251C35.6873 82.8251 37.6676 83.3202 39.4416 84.3104C39.4416 84.3516 39.4416 84.3516 39.4416 84.3929C39.5242 85.1767 39.0291 86.1669 38.2865 86.662C37.5438 87.1571 36.5949 87.3633 35.6873 87.4871C35.0272 87.5696 34.3258 87.6521 33.6657 87.7347C30.9428 88.0234 28.0961 88.3535 25.9508 90.1275C23.3516 92.2729 22.5677 96.3573 24.1355 99.6165C25.5795 102.587 28.6737 104.732 32.3043 105.186C32.6756 105.227 33.0881 105.269 33.5832 105.269C34.9859 105.269 36.8425 104.98 38.369 103.701C39.5654 102.711 40.2668 101.308 40.8856 99.9466C40.9681 99.7403 41.0506 99.534 41.1332 99.369C41.6282 98.2551 42.1233 97.1411 42.8659 96.1922C43.6498 95.2021 44.5987 94.5832 45.5889 94.4182C45.6301 97.5124 44.4749 100.689 42.0821 103.082Z" fill="#414141"/>
</g>
</svg>
