<svg width="84" height="26" viewBox="0 0 84 26" fill="currentColor" xmlns="http://www.w3.org/2000/svg">
<path d="M0 5.67826L3.28944 2L17.0829 20.678H31.5218V25.0175H13.9774L0 5.67826Z" fill="currentColor"/>
<path d="M39.0452 24.8617C37.7707 24.8617 36.6201 24.5697 35.5934 23.9855C34.5845 23.4014 33.7791 22.596 33.1772 21.5693C32.5931 20.5249 32.301 19.3213 32.301 17.9583C32.301 16.5953 32.602 15.4005 33.2038 14.3738C33.8056 13.3294 34.611 12.5152 35.62 11.931C36.6467 11.3469 37.7972 11.0548 39.0717 11.0548C40.3285 11.0548 41.4614 11.3469 42.4703 11.931C43.497 12.5152 44.3024 13.3294 44.8866 14.3738C45.4884 15.4005 45.7893 16.5953 45.7893 17.9583C45.7893 19.3213 45.4884 20.5249 44.8866 21.5693C44.3024 22.596 43.497 23.4014 42.4703 23.9855C41.4437 24.5697 40.302 24.8617 39.0452 24.8617ZM39.0452 21.9145C39.9302 21.9145 40.7002 21.587 41.3552 20.9321C42.0101 20.2594 42.3376 19.2682 42.3376 17.9583C42.3376 16.6484 42.0101 15.666 41.3552 15.011C40.7002 14.3384 39.9391 14.0021 39.0717 14.0021C38.169 14.0021 37.3901 14.3384 36.7352 15.011C36.0979 15.666 35.7793 16.6484 35.7793 17.9583C35.7793 19.2682 36.0979 20.2594 36.7352 20.9321C37.3901 21.587 38.1601 21.9145 39.0452 21.9145ZM48.0315 24.5431V5.42586H51.4301V24.5431H48.0315ZM55.9383 9.32897C55.3188 9.32897 54.8054 9.14311 54.3983 8.77138C54.0089 8.39966 53.8142 7.93058 53.8142 7.36414C53.8142 6.7977 54.0089 6.33747 54.3983 5.98345C54.8054 5.61173 55.3188 5.42586 55.9383 5.42586C56.5578 5.42586 57.0623 5.61173 57.4517 5.98345C57.8589 6.33747 58.0624 6.7977 58.0624 7.36414C58.0624 7.93058 57.8589 8.39966 57.4517 8.77138C57.0623 9.14311 56.5578 9.32897 55.9383 9.32897ZM54.239 24.5431V11.3735H57.6376V24.5431H54.239ZM66.2563 24.5431C64.8756 24.5431 63.7693 24.2068 62.9374 23.5341C62.1054 22.8615 61.6894 21.6667 61.6894 19.9497V14.2145H59.4325V11.3735H61.6894L62.0877 7.84207H65.0881V11.3735H68.646V14.2145H65.0881V19.9762C65.0881 20.6135 65.2208 21.056 65.4863 21.3038C65.7696 21.5339 66.2475 21.649 66.9201 21.649H68.5663V24.5431H66.2563ZM75.3078 24.8617C74.1749 24.8617 73.2456 24.6847 72.5198 24.3307C71.7941 23.959 71.2542 23.4722 70.9002 22.8703C70.5462 22.2685 70.3692 21.6047 70.3692 20.879C70.3692 19.6576 70.8471 18.6663 71.8029 17.9052C72.7588 17.144 74.1926 16.7635 76.1043 16.7635H79.4498V16.4448C79.4498 15.5421 79.1932 14.8783 78.6798 14.4535C78.1665 14.0286 77.5293 13.8162 76.7681 13.8162C76.0778 13.8162 75.4759 13.9844 74.9626 14.3207C74.4493 14.6393 74.1306 15.1172 74.0067 15.7545H70.6878C70.7763 14.7986 71.0949 13.9667 71.6436 13.2586C72.2101 12.5506 72.9358 12.0107 73.8209 11.639C74.7059 11.2495 75.6972 11.0548 76.7947 11.0548C78.671 11.0548 80.149 11.5239 81.2288 12.4621C82.3086 13.4002 82.8485 14.7278 82.8485 16.4448V24.5431H79.9543L79.6357 22.419C79.2463 23.127 78.6975 23.7112 77.9895 24.1714C77.2992 24.6316 76.4052 24.8617 75.3078 24.8617ZM76.0778 22.2066C77.0513 22.2066 77.8036 21.8879 78.3347 21.2507C78.8834 20.6135 79.2286 19.8257 79.3702 18.8876H76.4761C75.5733 18.8876 74.9272 19.0557 74.5378 19.3921C74.1484 19.7107 73.9536 20.109 73.9536 20.5869C73.9536 21.1002 74.1484 21.4985 74.5378 21.7817C74.9272 22.0649 75.4405 22.2066 76.0778 22.2066Z" fill="currentColor"/>
<path d="M35.5934 23.9855L35.393 24.3317L35.3956 24.3332L35.5934 23.9855ZM33.1772 21.5693L32.8281 21.7646L32.8322 21.7716L33.1772 21.5693ZM33.2038 14.3738L33.5489 14.5761L33.5504 14.5735L33.2038 14.3738ZM35.62 11.931L35.4222 11.5834L35.4196 11.5849L35.62 11.931ZM42.4703 11.931L42.2699 12.2772L42.2725 12.2787L42.4703 11.931ZM44.8866 14.3738L44.5374 14.5691L44.5415 14.5761L44.8866 14.3738ZM44.8866 21.5693L44.54 21.3696L44.5389 21.3715L44.8866 21.5693ZM42.4703 23.9855L42.2725 23.6379L42.4703 23.9855ZM41.3552 20.9321L41.638 21.2149L41.6418 21.2111L41.3552 20.9321ZM41.3552 15.011L41.0686 15.2901L41.0723 15.2939L41.3552 15.011ZM36.7352 15.011L36.4486 14.732L36.4485 14.7321L36.7352 15.011ZM36.7352 20.9321L36.4447 21.2073L36.4523 21.2149L36.7352 20.9321ZM39.0452 24.4617C37.8344 24.4617 36.7529 24.185 35.7913 23.6379L35.3956 24.3332C36.4873 24.9543 37.707 25.2617 39.0452 25.2617V24.4617ZM35.7939 23.6393C34.846 23.0906 34.0899 22.3353 33.5223 21.367L32.8322 21.7716C33.4682 22.8566 34.3229 23.7122 35.393 24.3317L35.7939 23.6393ZM33.5263 21.3741C32.98 20.3972 32.701 19.2625 32.701 17.9583H31.901C31.901 19.38 32.2062 20.6527 32.8281 21.7646L33.5263 21.3741ZM32.701 17.9583C32.701 16.6559 32.988 15.5329 33.5489 14.5761L32.8587 14.1715C32.2159 15.268 31.901 16.5347 31.901 17.9583H32.701ZM33.5504 14.5735C34.1184 13.5878 34.8743 12.825 35.8204 12.2772L35.4196 11.5849C34.3478 12.2054 33.4929 13.0711 32.8572 14.1741L33.5504 14.5735ZM35.8178 12.2787C36.7795 11.7316 37.861 11.4548 39.0717 11.4548V10.6548C37.7335 10.6548 36.5139 10.9622 35.4222 11.5834L35.8178 12.2787ZM39.0717 11.4548C40.2638 11.4548 41.3266 11.7311 42.2699 12.2772L42.6708 11.5849C41.5962 10.9627 40.3932 10.6548 39.0717 10.6548V11.4548ZM42.2725 12.2787C43.235 12.8263 43.9884 13.5875 44.5374 14.5691L45.2357 14.1785C44.6164 13.0714 43.7591 12.2041 42.6682 11.5834L42.2725 12.2787ZM44.5415 14.5761C45.1024 15.5329 45.3893 16.6559 45.3893 17.9583H46.1893C46.1893 16.5347 45.8744 15.268 45.2316 14.1715L44.5415 14.5761ZM45.3893 17.9583C45.3893 19.2605 45.1024 20.3936 44.54 21.3696L45.2331 21.769C45.8744 20.6563 46.1893 19.382 46.1893 17.9583H45.3893ZM44.5389 21.3715C43.9903 22.3357 43.2367 23.0893 42.2725 23.6379L42.6682 24.3332C43.7573 23.7135 44.6145 22.8563 45.2342 21.7671L44.5389 21.3715ZM42.2725 23.6379C41.31 24.1855 40.2372 24.4617 39.0452 24.4617V25.2617C40.3667 25.2617 41.5773 24.9538 42.6682 24.3332L42.2725 23.6379ZM39.0452 22.3145C40.0417 22.3145 40.9119 21.941 41.638 21.2149L41.0723 20.6492C40.4885 21.233 39.8188 21.5145 39.0452 21.5145V22.3145ZM41.6418 21.2111C42.3941 20.4385 42.7376 19.3307 42.7376 17.9583H41.9376C41.9376 19.2056 41.6261 20.0804 41.0686 20.653L41.6418 21.2111ZM42.7376 17.9583C42.7376 16.5867 42.3944 15.4846 41.638 14.7282L41.0723 15.2939C41.6258 15.8474 41.9376 16.7101 41.9376 17.9583H42.7376ZM41.6418 14.732C40.9184 13.9891 40.0565 13.6021 39.0717 13.6021V14.4021C39.8217 14.4021 40.4821 14.6877 41.0686 15.2901L41.6418 14.732ZM39.0717 13.6021C38.0563 13.6021 37.1755 13.9855 36.4486 14.732L37.0218 15.2901C37.6048 14.6913 38.2816 14.4021 39.0717 14.4021V13.6021ZM36.4485 14.7321C35.7122 15.4888 35.3793 16.5894 35.3793 17.9583H36.1793C36.1793 16.7073 36.4837 15.8431 37.0219 15.29L36.4485 14.7321ZM35.3793 17.9583C35.3793 19.328 35.7126 20.4343 36.4448 21.2072L37.0256 20.657C36.4833 20.0846 36.1793 19.2083 36.1793 17.9583H35.3793ZM36.4523 21.2149C37.1784 21.941 38.0487 22.3145 39.0452 22.3145V21.5145C38.2716 21.5145 37.6018 21.233 37.018 20.6492L36.4523 21.2149ZM48.0315 24.5431H47.6315V24.9431H48.0315V24.5431ZM48.0315 5.42586V5.02586H47.6315V5.42586H48.0315ZM51.4301 5.42586H51.8301V5.02586H51.4301V5.42586ZM51.4301 24.5431V24.9431H51.8301V24.5431H51.4301ZM48.4315 24.5431V5.42586H47.6315V24.5431H48.4315ZM48.0315 5.82586H51.4301V5.02586H48.0315V5.82586ZM51.0301 5.42586V24.5431H51.8301V5.42586H51.0301ZM51.4301 24.1431H48.0315V24.9431H51.4301V24.1431ZM54.3983 8.77138L54.122 9.06079L54.1286 9.06678L54.3983 8.77138ZM54.3983 5.98345L54.6674 6.27943L54.668 6.27884L54.3983 5.98345ZM57.4517 5.98345L57.1756 6.27279L57.1823 6.2792L57.1893 6.28529L57.4517 5.98345ZM57.4517 8.77138L57.182 8.47591L57.1756 8.48204L57.4517 8.77138ZM54.239 24.5431H53.839V24.9431H54.239V24.5431ZM54.239 11.3735V10.9735H53.839V11.3735H54.239ZM57.6376 11.3735H58.0376V10.9735H57.6376V11.3735ZM57.6376 24.5431V24.9431H58.0376V24.5431H57.6376ZM55.9383 8.92897C55.4053 8.92897 54.9922 8.77195 54.668 8.47599L54.1286 9.06678C54.6187 9.51426 55.2323 9.72897 55.9383 9.72897V8.92897ZM54.6745 8.48204C54.3686 8.19009 54.2142 7.82765 54.2142 7.36414H53.4142C53.4142 8.0335 53.6491 8.60922 54.1221 9.06072L54.6745 8.48204ZM54.2142 7.36414C54.2142 6.90075 54.3682 6.55138 54.6674 6.27943L54.1292 5.68747C53.6495 6.12356 53.4142 6.69466 53.4142 7.36414H54.2142ZM54.668 6.27884C54.9922 5.98288 55.4053 5.82586 55.9383 5.82586V5.02586C55.2323 5.02586 54.6187 5.24057 54.1286 5.68806L54.668 6.27884ZM55.9383 5.82586C56.4717 5.82586 56.8718 5.98284 57.1756 6.27279L57.7279 5.69411C57.2528 5.24061 56.644 5.02586 55.9383 5.02586V5.82586ZM57.1893 6.28529C57.5042 6.55913 57.6624 6.9069 57.6624 7.36414H58.4624C58.4624 6.68851 58.2135 6.11581 57.7142 5.68161L57.1893 6.28529ZM57.6624 7.36414C57.6624 7.82169 57.5036 8.18238 57.182 8.47599L57.7214 9.06678C58.2141 8.61693 58.4624 8.03947 58.4624 7.36414H57.6624ZM57.1756 8.48204C56.8718 8.77199 56.4717 8.92897 55.9383 8.92897V9.72897C56.644 9.72897 57.2528 9.51422 57.7279 9.06072L57.1756 8.48204ZM54.639 24.5431V11.3735H53.839V24.5431H54.639ZM54.239 11.7735H57.6376V10.9735H54.239V11.7735ZM57.2376 11.3735V24.5431H58.0376V11.3735H57.2376ZM57.6376 24.1431H54.239V24.9431H57.6376V24.1431ZM62.9374 23.5341L63.1889 23.2231L62.9374 23.5341ZM61.6894 14.2145H62.0894V13.8145H61.6894V14.2145ZM59.4325 14.2145H59.0325V14.6145H59.4325V14.2145ZM59.4325 11.3735V10.9735H59.0325V11.3735H59.4325ZM61.6894 11.3735V11.7735H62.0469L62.0869 11.4183L61.6894 11.3735ZM62.0877 7.84207V7.44207H61.7303L61.6902 7.79724L62.0877 7.84207ZM65.0881 7.84207H65.4881V7.44207H65.0881V7.84207ZM65.0881 11.3735H64.6881V11.7735H65.0881V11.3735ZM68.646 11.3735H69.046V10.9735H68.646V11.3735ZM68.646 14.2145V14.6145H69.046V14.2145H68.646ZM65.0881 14.2145V13.8145H64.6881V14.2145H65.0881ZM65.4863 21.3038L65.2134 21.5962L65.2234 21.6056L65.2341 21.6142L65.4863 21.3038ZM68.5663 21.649H68.9663V21.249H68.5663V21.649ZM68.5663 24.5431V24.9431H68.9663V24.5431H68.5663ZM66.2563 24.1431C64.9402 24.1431 63.9312 23.8232 63.1889 23.2231L62.6859 23.8452C63.6075 24.5903 64.8111 24.9431 66.2563 24.9431V24.1431ZM63.1889 23.2231C62.4956 22.6626 62.0894 21.6185 62.0894 19.9497H61.2894C61.2894 21.7148 61.7152 23.0604 62.6859 23.8452L63.1889 23.2231ZM62.0894 19.9497V14.2145H61.2894V19.9497H62.0894ZM61.6894 13.8145H59.4325V14.6145H61.6894V13.8145ZM59.8325 14.2145V11.3735H59.0325V14.2145H59.8325ZM59.4325 11.7735H61.6894V10.9735H59.4325V11.7735ZM62.0869 11.4183L62.4852 7.8869L61.6902 7.79724L61.292 11.3286L62.0869 11.4183ZM62.0877 8.24207H65.0881V7.44207H62.0877V8.24207ZM64.6881 7.84207V11.3735H65.4881V7.84207H64.6881ZM65.0881 11.7735H68.646V10.9735H65.0881V11.7735ZM68.246 11.3735V14.2145H69.046V11.3735H68.246ZM68.646 13.8145H65.0881V14.6145H68.646V13.8145ZM64.6881 14.2145V19.9762H65.4881V14.2145H64.6881ZM64.6881 19.9762C64.6881 20.6462 64.8234 21.2323 65.2134 21.5962L65.7593 21.0114C65.6182 20.8797 65.4881 20.5807 65.4881 19.9762H64.6881ZM65.2341 21.6142C65.6278 21.9341 66.2236 22.049 66.9201 22.049V21.249C66.2713 21.249 65.9113 21.1337 65.7386 20.9934L65.2341 21.6142ZM66.9201 22.049H68.5663V21.249H66.9201V22.049ZM68.1663 21.649V24.5431H68.9663V21.649H68.1663ZM68.5663 24.1431H66.2563V24.9431H68.5663V24.1431ZM72.5198 24.3307L72.3375 24.6868L72.3445 24.6902L72.5198 24.3307ZM70.9002 22.8703L70.5554 23.0732L70.9002 22.8703ZM71.8029 17.9052L72.0521 18.2181L71.8029 17.9052ZM79.4498 16.7635V17.1635H79.8498V16.7635H79.4498ZM78.6798 14.4535L78.9349 14.1453L78.6798 14.4535ZM74.9626 14.3207L75.1736 14.6607L75.1818 14.6553L74.9626 14.3207ZM74.0067 15.7545V16.1545H74.3365L74.3994 15.8308L74.0067 15.7545ZM70.6878 15.7545L70.2895 15.7176L70.249 16.1545H70.6878V15.7545ZM71.6436 13.2586L71.3313 13.0087L71.3275 13.0136L71.6436 13.2586ZM73.8209 11.639L73.9758 12.0078L73.982 12.0051L73.8209 11.639ZM81.2288 12.4621L80.9665 12.764L81.2288 12.4621ZM82.8485 24.5431V24.9431H83.2485V24.5431H82.8485ZM79.9543 24.5431L79.5588 24.6024L79.6099 24.9431H79.9543V24.5431ZM79.6357 22.419L80.0313 22.3596L79.8557 21.189L79.2852 22.2262L79.6357 22.419ZM77.9895 24.1714L77.7715 23.836L77.7676 23.8386L77.9895 24.1714ZM78.3347 21.2507L78.0315 20.9896L78.0274 20.9946L78.3347 21.2507ZM79.3702 18.8876L79.7657 18.9473L79.8351 18.4876H79.3702V18.8876ZM74.5378 19.3921L74.7912 19.7018L74.7992 19.6948L74.5378 19.3921ZM74.5378 21.7817L74.773 21.4582L74.5378 21.7817ZM75.3078 24.4617C74.2127 24.4617 73.3489 24.2901 72.6952 23.9712L72.3445 24.6902C73.1423 25.0794 74.1371 25.2617 75.3078 25.2617V24.4617ZM72.7022 23.9747C72.0325 23.6317 71.5544 23.1936 71.245 22.6675L70.5554 23.0732C70.954 23.7508 71.5557 24.2863 72.3375 24.6867L72.7022 23.9747ZM71.245 22.6675C70.9286 22.1297 70.7692 21.5363 70.7692 20.879H69.9692C69.9692 21.6731 70.1638 22.4074 70.5554 23.0732L71.245 22.6675ZM70.7692 20.879C70.7692 19.7795 71.1915 18.9034 72.0521 18.2181L71.5538 17.5923C70.5027 18.4293 69.9692 19.5357 69.9692 20.879H70.7692ZM72.0521 18.2181C72.907 17.5374 74.235 17.1635 76.1043 17.1635V16.3635C74.1502 16.3635 72.6106 16.7507 71.5538 17.5923L72.0521 18.2181ZM76.1043 17.1635H79.4498V16.3635H76.1043V17.1635ZM79.8498 16.7635V16.4448H79.0498V16.7635H79.8498ZM79.8498 16.4448C79.8498 15.4677 79.5697 14.6707 78.9349 14.1453L78.4248 14.7616C78.8166 15.0859 79.0498 15.6164 79.0498 16.4448H79.8498ZM78.9349 14.1453C78.3397 13.6527 77.6084 13.4162 76.7681 13.4162V14.2162C77.4502 14.2162 77.9933 14.4045 78.4248 14.7616L78.9349 14.1453ZM76.7681 13.4162C76.0099 13.4162 75.3298 13.6019 74.7434 13.9861L75.1818 14.6553C75.6221 14.3668 76.1456 14.2162 76.7681 14.2162V13.4162ZM74.7517 13.9808C74.1361 14.3629 73.7575 14.9407 73.6141 15.6781L74.3994 15.8308C74.5038 15.2938 74.7624 14.9157 75.1735 14.6605L74.7517 13.9808ZM74.0067 15.3545H70.6878V16.1545H74.0067V15.3545ZM71.0861 15.7914C71.1681 14.9056 71.4611 14.1472 71.9598 13.5037L71.3275 13.0136C70.7287 13.7861 70.3845 14.6916 70.2895 15.7176L71.0861 15.7914ZM71.956 13.5085C72.4782 12.8557 73.1486 12.3552 73.9758 12.0078L73.666 11.2702C72.7231 11.6662 71.9419 12.2455 71.3313 13.0087L71.956 13.5085ZM73.982 12.0051C74.8098 11.6408 75.7452 11.4548 76.7947 11.4548V10.6548C75.6492 10.6548 74.602 10.8583 73.6598 11.2728L73.982 12.0051ZM76.7947 11.4548C78.6052 11.4548 79.9796 11.9066 80.9665 12.764L81.4912 12.1601C80.3184 11.1412 78.7368 10.6548 76.7947 10.6548V11.4548ZM80.9665 12.764C81.9413 13.611 82.4485 14.8182 82.4485 16.4448H83.2485C83.2485 14.6374 82.6759 13.1895 81.4912 12.1601L80.9665 12.764ZM82.4485 16.4448V24.5431H83.2485V16.4448H82.4485ZM82.8485 24.1431H79.9543V24.9431H82.8485V24.1431ZM80.3499 24.4838L80.0313 22.3596L79.2401 22.4783L79.5588 24.6024L80.3499 24.4838ZM79.2852 22.2262C78.929 22.8739 78.4269 23.41 77.7715 23.836L78.2075 24.5068C78.9682 24.0123 79.5636 23.3801 79.9862 22.6117L79.2852 22.2262ZM77.7676 23.8386C77.1611 24.2429 76.3513 24.4617 75.3078 24.4617V25.2617C76.4592 25.2617 77.4372 25.0203 78.2114 24.5042L77.7676 23.8386ZM76.0778 22.6066C77.1471 22.6066 78.0214 22.2514 78.642 21.5068L78.0274 20.9946C77.5859 21.5244 76.9555 21.8066 76.0778 21.8066V22.6066ZM78.6378 21.5117C79.2418 20.8103 79.6143 19.9501 79.7657 18.9473L78.9747 18.8279C78.8428 19.7014 78.5251 20.4166 78.0316 20.9897L78.6378 21.5117ZM79.3702 18.4876H76.4761V19.2876H79.3702V18.4876ZM76.4761 18.4876C75.5429 18.4876 74.7761 18.6577 74.2763 19.0893L74.7992 19.6948C75.0783 19.4538 75.6037 19.2876 76.4761 19.2876V18.4876ZM74.2845 19.0825C73.8078 19.4725 73.5536 19.9819 73.5536 20.5869H74.3536C74.3536 20.236 74.4889 19.9489 74.7911 19.7017L74.2845 19.0825ZM73.5536 20.5869C73.5536 21.2183 73.8018 21.7411 74.3025 22.1052L74.773 21.4582C74.4949 21.2559 74.3536 20.9822 74.3536 20.5869H73.5536ZM74.3025 22.1052C74.7794 22.452 75.3831 22.6066 76.0778 22.6066V21.8066C75.498 21.8066 75.075 21.6779 74.773 21.4582L74.3025 22.1052Z" fill="currentColor"/>
</svg>
