<svg width="59" height="59" viewBox="0 0 59 59" fill="none" xmlns="http://www.w3.org/2000/svg">
<g clip-path="url(#clip0_5_152)">
<path d="M29.592 9.8114C18.7194 9.8114 9.90344 18.6274 9.90344 29.5C9.90344 40.3726 18.7194 49.1886 29.592 49.1886C40.4646 49.1886 49.2806 40.3726 49.2806 29.5C49.2806 18.6274 40.4646 9.8114 29.592 9.8114Z" fill="white"/>
<path d="M15.9379 43.5795C16.3705 43.2532 16.7547 42.869 17.168 42.5186C17.2429 42.4582 17.313 42.3929 17.4 42.318C17.4411 42.4461 17.4749 42.55 17.5063 42.6563C17.7117 43.3306 18.1443 43.7994 18.8089 44.0556C19.082 44.1619 19.3551 44.2682 19.6354 44.3601C20.8171 44.7419 21.7041 45.4766 22.3058 46.552C22.3638 46.6559 22.4097 46.7018 22.5451 46.6632C23.7848 46.3176 24.9811 46.465 26.1386 47.0063C26.5132 47.1803 26.8878 47.3543 27.2841 47.4848C27.8786 47.6854 28.4296 47.6008 28.9396 47.2407C29.0435 47.1682 29.145 47.0909 29.2876 46.987C29.2972 47.7072 29.3093 48.3959 29.319 49.0822C29.3166 49.1958 29.2924 49.2611 29.1474 49.2514C28.4393 49.2127 27.7336 49.1837 27.028 49.0967C25.5224 48.9131 24.0651 48.553 22.6514 48.0117C20.4498 47.1731 18.4778 45.9551 16.6919 44.4374C16.4454 44.2296 16.2061 44.0097 15.9596 43.8018C15.8726 43.7293 15.8581 43.6617 15.9379 43.5795Z" fill="black"/>
<path d="M15.4207 15.8893C15.8678 16.3751 16.3149 16.8608 16.7813 17.3683C16.6677 17.407 16.5735 17.4408 16.4792 17.4674C15.7591 17.6753 15.2757 18.132 15.0147 18.8232C14.906 19.1083 14.7996 19.3959 14.703 19.6859C14.3284 20.8121 13.6106 21.6555 12.5787 22.2403C12.4361 22.3201 12.3999 22.3902 12.4458 22.5521C12.7866 23.7483 12.6464 24.9059 12.1316 26.0297C11.9842 26.3487 11.8441 26.6701 11.7111 26.9939C11.4139 27.7165 11.5033 28.3859 12.0132 28.9877C12.0567 29.0384 12.0978 29.0916 12.1679 29.181C11.4018 29.1955 10.6671 29.21 9.93489 29.2221C9.84789 29.1738 9.8793 29.0916 9.8793 29.0215C9.91555 25.8992 10.6623 22.9605 12.1872 20.22C12.5715 19.5313 12.9992 18.8715 13.4487 18.2263C13.7508 17.7913 14.0674 17.3708 14.4033 16.9623C14.674 16.6385 14.9519 16.3195 15.2419 16.0126C15.2926 15.9594 15.3313 15.8869 15.4207 15.8893Z" fill="black"/>
<path d="M9.93976 29.8987C10.6092 29.9374 11.2786 29.9761 11.9722 30.0147C11.9142 30.1259 11.8658 30.225 11.8151 30.3217C11.4816 30.9403 11.4502 31.5759 11.7353 32.2212C11.8634 32.5063 11.9939 32.7939 12.1365 33.0742C12.6851 34.1521 12.7793 35.2734 12.4531 36.4286C12.4144 36.5591 12.4265 36.6267 12.5546 36.6968C13.659 37.3034 14.3937 38.2217 14.8311 39.3866C14.9326 39.6597 15.0486 39.9279 15.1477 40.201C15.4739 41.0927 16.0974 41.5809 17.1124 41.5954C16.588 42.1392 16.0926 42.6539 15.5948 43.1662C15.4739 43.2653 15.4208 43.1517 15.3603 43.0889C14.3526 42.057 13.4633 40.9357 12.7117 39.708C11.4091 37.5765 10.5947 35.2734 10.1863 32.8181C10.034 31.9022 9.9591 30.9814 9.88901 30.0582C9.88418 29.9978 9.87451 29.935 9.93976 29.8987Z" fill="black"/>
<path d="M49.3677 29.1931C48.691 29.1568 48.0143 29.1182 47.3135 29.0795C47.3812 28.9538 47.4392 28.8499 47.4923 28.746C47.8089 28.137 47.8403 27.5159 47.5624 26.8852C47.4295 26.5831 47.2917 26.2858 47.1443 25.991C46.6127 24.9204 46.5232 23.8136 46.8495 22.6705C46.8833 22.5497 46.8882 22.4723 46.7552 22.3998C45.6339 21.7836 44.8968 20.8459 44.4618 19.6642C44.3507 19.3621 44.225 19.0648 44.1066 18.7676C43.8166 18.0233 43.2825 17.5858 42.4705 17.5037C42.3956 17.4964 42.3231 17.4843 42.2482 17.4747C42.2385 17.3973 42.3037 17.3708 42.3424 17.3321C42.7871 16.8826 43.239 16.4379 43.6788 15.9836C43.7803 15.8821 43.8311 15.8748 43.935 15.9836C44.7881 16.8584 45.5542 17.8033 46.2332 18.8159C46.2719 18.8715 46.2816 18.9561 46.371 18.9706L46.3662 18.9658C46.4 19.1253 46.5112 19.2437 46.5982 19.3742L46.5957 19.3693C46.6417 19.4467 46.6876 19.524 46.7359 19.5989L46.7311 19.5941C46.7383 19.6207 46.7383 19.6521 46.7818 19.6448L46.777 19.6376C46.7697 19.6811 46.777 19.7198 46.8229 19.7391C47.1371 20.2321 47.3787 20.7638 47.6252 21.2858C47.9684 22.018 48.2342 22.7817 48.4759 23.5526C48.4977 23.6203 48.5774 23.6686 48.546 23.7532C48.4977 23.8281 48.5653 23.8668 48.5992 23.9151L48.5943 23.9103C48.6137 24.0021 48.6209 24.0988 48.6547 24.1882C48.7538 24.4613 48.7562 24.7609 48.9012 25.0195C48.8988 25.3047 48.9665 25.5874 49.0414 25.8557C49.1018 26.0659 49.0897 26.2713 49.1212 26.4768C49.2492 27.3782 49.3725 28.2796 49.3677 29.1931Z" fill="black"/>
<path d="M43.7248 43.0382C43.3091 42.5742 42.8958 42.1126 42.4633 41.6317C42.5503 41.6027 42.6179 41.5785 42.6856 41.5592C43.4372 41.3513 43.9568 40.8946 44.2202 40.1623C44.3217 39.8723 44.4328 39.5872 44.5295 39.2972C44.8993 38.1879 45.6049 37.3493 46.6199 36.7717C46.7939 36.6727 46.8157 36.5832 46.7649 36.402C46.4266 35.2057 46.5813 34.0506 47.096 32.9292C47.2628 32.5692 47.4174 32.2042 47.5552 31.8321C47.7799 31.2158 47.676 30.6407 47.2773 30.1163C47.2096 30.0293 47.1395 29.9398 47.0404 29.8142C47.8017 29.7973 48.5291 29.7827 49.2541 29.7682C49.329 29.8142 49.3073 29.8867 49.3097 29.9519C49.3266 31.0539 49.2178 32.1462 49.0197 33.2289C48.6813 35.0873 48.0603 36.8539 47.1758 38.5263C46.3783 40.0318 45.4019 41.4117 44.2733 42.6926C44.1743 42.8037 44.0679 42.9101 43.9785 43.0309C43.8891 43.1518 43.8118 43.1252 43.7248 43.0382Z" fill="black"/>
<path d="M29.9472 12.071C29.9472 11.3339 29.9497 10.6379 29.9448 9.94434C29.9448 9.80417 30.0222 9.81142 30.1212 9.81383C32.5017 9.87183 34.7975 10.3262 36.9991 11.2348C39.3481 12.2088 41.4119 13.608 43.2703 15.319C43.3307 15.3746 43.4081 15.4108 43.2993 15.5051C42.8184 15.9159 42.3423 16.334 41.8662 16.7473C41.8566 16.7569 41.8372 16.7521 41.7937 16.7593C41.6222 15.6525 40.8512 15.1305 39.8483 14.8212C39.1547 14.6085 38.4974 14.3088 37.9488 13.811C37.5356 13.4388 37.2045 13.0063 36.9338 12.5253C36.8782 12.4263 36.8275 12.3828 36.7067 12.4166C35.4476 12.767 34.2417 12.6027 33.072 12.0493C32.6781 11.8608 32.2842 11.6747 31.8637 11.549C31.3272 11.3895 30.8317 11.4741 30.3702 11.7738C30.2397 11.8583 30.114 11.955 29.9472 12.071Z" fill="black"/>
<path d="M17.3492 17.03C16.8272 16.5346 16.3076 16.044 15.788 15.5558C15.6769 15.4519 15.7953 15.4133 15.8412 15.3673C16.3584 14.8478 16.9045 14.362 17.4773 13.9077C20.0752 11.8487 23.0356 10.592 26.3078 10.0386C27.1657 9.89117 28.0285 9.7945 28.896 9.7365C29.0459 9.72684 29.087 9.76308 29.0797 9.91292C29.0507 10.4833 29.0338 11.0512 29.0169 11.6215C29.0145 11.7617 28.9855 11.7931 28.855 11.7158C28.0913 11.2687 27.3252 11.2856 26.5446 11.6819C25.9815 11.9695 25.4209 12.2692 24.7974 12.4142C24.0289 12.5954 23.2652 12.5423 22.5088 12.3538C22.3928 12.3248 22.3396 12.3344 22.2816 12.4432C21.6726 13.5718 20.7374 14.3233 19.5435 14.7777C19.1835 14.9154 18.8282 15.0628 18.4802 15.2248C17.818 15.5268 17.4676 16.0513 17.4072 16.769C17.4 16.8367 17.3903 16.9019 17.3806 16.9696C17.3782 16.9841 17.3661 16.9962 17.3492 17.03Z" fill="black"/>
<path d="M43.3453 43.4345C42.8257 42.9536 42.3037 42.4702 41.7672 41.9724C41.7624 42.0352 41.7576 42.0715 41.7551 42.1077C41.7044 42.9753 41.2718 43.565 40.4574 43.884C40.1505 44.0048 39.8436 44.1353 39.5342 44.2537C38.4129 44.6863 37.5139 45.3847 36.9218 46.436C36.8106 46.6317 36.7188 46.6801 36.4916 46.6221C35.4404 46.3514 34.4109 46.4287 33.4225 46.9C33.0841 47.0619 32.7458 47.2262 32.4051 47.3833C31.7211 47.6999 31.0469 47.6806 30.3799 47.3253C30.305 47.2867 30.2373 47.2166 30.1213 47.2214C30.0947 47.8207 30.0657 48.4177 30.0367 49.0146C30.0053 49.22 30.102 49.2635 30.2929 49.2514C31.0856 49.1958 31.871 49.1064 32.654 48.9832C35.0682 48.6037 37.3423 47.8352 39.4545 46.61C40.8586 45.7956 42.1321 44.8144 43.2801 43.6737C43.3477 43.6085 43.4468 43.5481 43.3453 43.4345Z" fill="black"/>
<path d="M29.592 0.5C13.601 0.5 0.592041 13.5089 0.592041 29.5C0.592041 45.4911 13.601 58.5 29.592 58.5C45.5831 58.5 58.592 45.4911 58.592 29.5C58.592 13.5089 45.5831 0.5 29.592 0.5ZM29.592 57.427C14.1689 57.427 1.66504 44.9232 1.66504 29.5C1.66504 14.0768 14.1689 1.573 29.592 1.573C45.0152 1.573 57.519 14.0768 57.519 29.5C57.519 44.9232 45.0152 57.427 29.592 57.427Z" fill="black"/>
<path d="M29.592 1.573C14.1689 1.573 1.66504 14.0768 1.66504 29.5C1.66504 44.9232 14.1689 57.427 29.592 57.427C45.0152 57.427 57.519 44.9232 57.519 29.5C57.519 14.0768 45.0152 1.573 29.592 1.573ZM29.592 49.1886C18.7195 49.1886 9.90346 40.3726 9.90346 29.5C9.90346 18.6274 18.7195 9.81141 29.592 9.81141C40.4646 9.81141 49.2806 18.6274 49.2806 29.5C49.2806 40.3726 40.4646 49.1886 29.592 49.1886Z" fill="#F5F5F5"/>
<path d="M51.5812 28.4536C51.9848 28.4778 52.3401 28.6107 52.7074 28.6953C52.7775 28.7098 52.8669 28.7726 52.908 28.6856C52.9587 28.5744 52.8331 28.5527 52.7702 28.5164C52.4851 28.3618 52.2071 28.1926 51.9389 28.0089C51.7746 27.8953 51.6392 27.7576 51.5788 27.557C51.5377 27.4241 51.574 27.3129 51.6658 27.2283C51.7528 27.1486 51.8591 27.122 51.9824 27.1679C52.2845 27.2839 52.4367 27.5498 52.6059 27.7987C52.7267 27.9799 52.8282 28.1757 52.9418 28.3618C52.9781 28.4222 52.9998 28.5285 53.0989 28.485C53.1907 28.4463 53.1182 28.3666 53.1061 28.3062C53.0264 27.9026 52.8645 27.5111 52.8741 27.0906C52.8766 26.9408 52.9056 26.8054 53.0216 26.7015C53.198 26.542 53.3937 26.571 53.5073 26.7813C53.6064 26.9625 53.6209 27.1558 53.575 27.354C53.5049 27.6682 53.4276 27.9848 53.3526 28.2989C53.3406 28.3545 53.2922 28.4222 53.3768 28.4536C53.4517 28.4778 53.4807 28.4077 53.5073 28.3545C53.6185 28.1394 53.7296 27.9268 53.8384 27.7093C53.9375 27.5111 54.0752 27.3419 54.242 27.1969C54.3846 27.0713 54.6407 27.0423 54.7422 27.151C54.8751 27.2936 54.8486 27.4579 54.7688 27.615C54.648 27.847 54.4377 27.9848 54.2347 28.1298C54.0438 28.2627 53.8432 28.3835 53.6499 28.5164C53.604 28.5478 53.5363 28.5865 53.5677 28.659C53.6016 28.7412 53.6692 28.7243 53.7393 28.7049C54.01 28.63 54.2806 28.5672 54.5489 28.4898C54.7205 28.4415 54.8945 28.4463 55.0661 28.4536C55.2739 28.4657 55.4576 28.6252 55.4648 28.7895C55.4745 28.9466 55.3222 29.0964 55.1071 29.1351C54.7084 29.21 54.3362 29.0626 53.9544 28.9853C53.8722 28.9708 53.7949 28.9418 53.7151 28.92C53.6571 28.9031 53.6136 28.9103 53.5846 28.9708C53.5508 29.0433 53.604 29.0626 53.6499 29.0916C53.8843 29.2414 54.1187 29.3913 54.358 29.5387C54.5006 29.6281 54.6166 29.7489 54.7277 29.8698C54.8969 30.051 54.909 30.283 54.7785 30.4256C54.6697 30.5416 54.416 30.5271 54.242 30.3724C54.0414 30.196 53.9036 29.9688 53.7707 29.7393C53.6861 29.587 53.6016 29.4348 53.5146 29.2849C53.488 29.2366 53.4686 29.1593 53.3865 29.1979C53.3091 29.2318 53.3478 29.297 53.3599 29.355C53.4372 29.7441 53.5701 30.1259 53.5532 30.5343C53.5484 30.6503 53.5291 30.7591 53.4517 30.8485C53.372 30.9403 53.2826 31.0539 53.1545 31.0273C53.0167 31.0008 52.9297 30.8823 52.8766 30.7494C52.7871 30.5247 52.85 30.3023 52.8983 30.0824C52.9539 29.8335 53.0336 29.5894 53.0989 29.3405C53.1134 29.2849 53.1786 29.2076 53.0723 29.1689C52.9853 29.1375 52.9756 29.2269 52.9466 29.268C52.7291 29.5943 52.5527 29.9471 52.2627 30.2226C52.0307 30.4449 51.7721 30.5029 51.6247 30.3531C51.4846 30.2129 51.5474 29.9302 51.7746 29.7151C52.0501 29.4589 52.3981 29.3212 52.7146 29.1303C52.7533 29.1061 52.7944 29.0868 52.8331 29.065C52.879 29.0384 52.9394 29.0143 52.9056 28.949C52.8766 28.8934 52.8258 28.9345 52.7847 28.9442C52.4754 29.0143 52.1685 29.0843 51.8591 29.1593C51.7238 29.1907 51.5885 29.1858 51.4531 29.1738C51.2381 29.152 51.0423 28.9756 51.052 28.8088C51.0616 28.5938 51.2381 28.5309 51.4024 28.4729C51.4652 28.4512 51.5377 28.4584 51.5812 28.4536Z" fill="black"/>
<path d="M6.04884 27.1462C6.04884 27.5063 5.9135 27.8398 5.83859 28.1853C5.82409 28.2554 5.77092 28.3545 5.85309 28.3883C5.94734 28.4246 5.95942 28.3038 5.99567 28.2482C6.20834 27.9098 6.32434 27.5135 6.61675 27.2259C6.82459 27.0181 7.07834 26.9577 7.2185 27.0882C7.37559 27.2356 7.33692 27.4821 7.12425 27.7141C6.84392 28.021 6.479 28.2095 6.14792 28.4463C6.09234 28.485 5.99084 28.4971 6.03434 28.6083C6.08267 28.7243 6.16725 28.6493 6.22767 28.6348C6.57809 28.5454 6.92367 28.4415 7.28134 28.3811C7.42392 28.3569 7.55925 28.3763 7.6825 28.4246C7.82509 28.4826 7.95317 28.5962 7.94109 28.7629C7.929 28.9152 7.81059 29.0143 7.66075 29.0553C7.38042 29.1327 7.10492 29.0843 6.83184 29.0215C6.62642 28.9756 6.42342 28.9176 6.218 28.8693C6.16484 28.8572 6.09234 28.833 6.0585 28.9079C6.02225 28.9877 6.10442 29.007 6.14792 29.0384C6.46934 29.2656 6.82942 29.4323 7.11459 29.7127C7.23059 29.8263 7.32484 29.9471 7.32484 30.1211C7.32484 30.3893 7.12184 30.5223 6.88017 30.4087C6.65784 30.3048 6.51042 30.1235 6.392 29.9181C6.2615 29.6958 6.13584 29.4734 6.01017 29.2487C5.97634 29.1931 5.95217 29.1061 5.86517 29.1448C5.78059 29.1786 5.81684 29.2632 5.83134 29.3236C5.90625 29.616 5.9715 29.9084 6.01984 30.2081C6.044 30.3555 6.03917 30.4933 6.00292 30.6334C5.94734 30.8388 5.783 30.9935 5.62592 30.9524C5.43984 30.9065 5.34317 30.7615 5.32142 30.573C5.29242 30.2975 5.35767 30.0341 5.435 29.7731C5.48575 29.5991 5.53892 29.4251 5.58725 29.2511C5.60175 29.1979 5.59934 29.1375 5.53892 29.1109C5.46642 29.0795 5.45434 29.1544 5.43017 29.1931C5.18609 29.5653 4.99034 29.9688 4.63267 30.2564C4.37892 30.4594 4.06717 30.3918 4.02367 30.1211C3.9995 29.9833 4.06717 29.8746 4.15175 29.7731C4.42725 29.4444 4.82117 29.2873 5.17642 29.0771C5.25375 29.0312 5.4205 29.0022 5.38184 28.9103C5.32867 28.7847 5.19092 28.8983 5.1015 28.92C4.80184 28.9949 4.50217 29.0698 4.19767 29.1182C4.00917 29.1472 3.83275 29.1206 3.67809 29.007C3.58625 28.9418 3.49442 28.8475 3.51617 28.7291C3.53792 28.5986 3.62492 28.4971 3.76025 28.4536C4.03817 28.3593 4.31125 28.4125 4.58434 28.4778C4.7825 28.5261 4.97584 28.5865 5.174 28.6348C5.2465 28.6542 5.34559 28.7388 5.39392 28.6348C5.44709 28.5237 5.319 28.5068 5.25617 28.4657C4.9855 28.2989 4.71242 28.1394 4.44417 27.9703C4.30884 27.8857 4.19042 27.7769 4.11309 27.6319C4.02609 27.47 3.985 27.2936 4.1445 27.1583C4.304 27.0205 4.48042 27.0882 4.623 27.1993C4.84534 27.3709 5.00967 27.6005 5.14742 27.8446C5.23684 28.0041 5.32867 28.1612 5.42534 28.3134C5.45675 28.3642 5.47609 28.4681 5.56309 28.4246C5.63317 28.3908 5.59934 28.2989 5.58484 28.2385C5.52925 27.9944 5.47125 27.7528 5.40359 27.5135C5.35042 27.3274 5.35284 27.1389 5.36492 26.9504C5.377 26.7353 5.551 26.5396 5.71775 26.542C5.87967 26.5444 6.02709 26.7208 6.04642 26.9432C6.05367 27.0108 6.04884 27.0785 6.04884 27.1462Z" fill="black"/>
<path d="M13.1708 13.9415C12.9412 13.7409 12.6705 13.6563 12.366 13.6829C12.2162 13.6998 12.0567 13.7554 11.8899 13.8497C11.9262 13.6853 11.931 13.5283 11.8996 13.3808C11.8537 13.1537 11.7401 12.9579 11.5637 12.8057C11.3583 12.6268 11.1166 12.535 10.8411 12.535C10.8387 12.535 10.8363 12.535 10.8363 12.535C10.5656 12.535 10.2877 12.6341 10.0122 12.8298C9.83336 12.9579 9.62553 13.1561 9.39595 13.4195L8.1272 14.8792L8.3592 15.0798L8.52595 14.8864C8.61295 14.7849 8.70236 14.7366 8.79661 14.7342C8.83286 14.7366 8.92711 14.7583 9.1712 14.971L11.2495 16.7787C11.4743 16.9744 11.5178 17.0638 11.5274 17.0928C11.554 17.1943 11.5202 17.2983 11.4235 17.407L11.2568 17.6003L11.4864 17.8009L12.8663 16.2132C13.1925 15.8386 13.3931 15.5389 13.4849 15.29C13.5768 15.0387 13.5913 14.7873 13.5284 14.5408C13.4656 14.2943 13.3448 14.0913 13.1708 13.9415ZM10.9909 13.4268C11.0997 13.521 11.1746 13.637 11.2181 13.7699C11.2616 13.9028 11.2616 14.0358 11.2157 14.1759C11.1698 14.3233 11.0489 14.5094 10.858 14.7293C10.7807 14.8163 10.7082 14.8937 10.6381 14.9638C10.5946 15.0073 10.5511 15.0483 10.5076 15.0846L9.3887 14.1107C9.45878 13.9826 9.5482 13.8545 9.66178 13.724C9.89861 13.4509 10.1427 13.2938 10.3844 13.26C10.6236 13.2262 10.8218 13.2818 10.9909 13.4268ZM12.0494 16.4234L10.8484 15.3818C10.8725 15.3504 10.8991 15.3142 10.9281 15.2755C10.9861 15.203 11.0562 15.1184 11.1408 15.0242C11.3269 14.8091 11.5154 14.6544 11.7039 14.565C11.8827 14.478 12.0519 14.449 12.2065 14.478C12.3636 14.507 12.4989 14.5723 12.6101 14.6689C12.7793 14.8163 12.8614 15.0024 12.859 15.2368C12.859 15.4737 12.7406 15.7298 12.5086 15.9981C12.3733 16.1503 12.221 16.2953 12.0494 16.4234Z" fill="black"/>
<path d="M18.0162 11.3532C17.8881 11.4378 17.7697 11.4741 17.6634 11.4668C17.586 11.4596 17.4265 11.4137 17.1124 11.2276L13.7532 9.23624L13.5647 9.3764L14.4734 13.1464C14.5483 13.4557 14.5773 13.6781 14.5531 13.811C14.5483 13.8352 14.5241 13.9077 14.3743 14.0647L14.3187 14.1227L14.4927 14.3572L15.7204 13.4437L15.5415 13.2044L15.4666 13.2503C15.2539 13.3857 15.1669 13.3953 15.1428 13.3977C15.0775 13.3953 15.0509 13.3712 15.0389 13.3542C15.0099 13.3156 14.9664 13.2286 14.918 13.028L14.7634 12.3755L15.9838 11.4668L16.5034 11.7737C16.7184 11.9018 16.803 11.9816 16.8369 12.0251C16.861 12.0565 16.8659 12.0927 16.8538 12.1387C16.8465 12.1701 16.8103 12.2377 16.6604 12.3634L16.5904 12.419L16.7716 12.6607L18.2699 11.5466L18.0911 11.3049L18.0162 11.3532ZM14.6546 11.9308L14.3042 10.4639L15.5971 11.2276L14.6546 11.9308Z" fill="black"/>
<path d="M21.2835 8.64417L21.2884 8.72392C21.298 8.997 21.2811 9.20967 21.2376 9.35467C21.1941 9.49484 21.1289 9.61084 21.0395 9.69784C20.95 9.78967 20.7591 9.90084 20.474 10.0313L20.1912 10.1618C19.8529 10.3189 19.778 10.3286 19.7683 10.3286C19.732 10.331 19.7055 10.3238 19.6861 10.3093C19.6595 10.2899 19.604 10.2271 19.517 10.0386L18.398 7.60501C18.2651 7.31259 18.2506 7.21834 18.253 7.18934C18.253 7.13617 18.2796 7.07817 18.3304 7.01775C18.369 6.97184 18.4633 6.89451 18.7025 6.78817L18.7895 6.74951L18.6615 6.47159L16.7378 7.35367L16.8659 7.63159L17.0979 7.52525C17.2187 7.46967 17.3202 7.46242 17.4072 7.50109C17.429 7.50834 17.5087 7.56392 17.6489 7.87084L18.7992 10.3697C18.9249 10.6452 18.9297 10.7394 18.9249 10.766C18.908 10.8723 18.8355 10.9545 18.7025 11.0149L18.4705 11.1213L18.5986 11.3992L21.7403 9.95642L21.5663 8.58134L21.2835 8.64417Z" fill="black"/>
<path d="M24.2077 8.91483C24.1255 8.93658 24.0433 8.93899 23.9588 8.91724C23.9056 8.90516 23.8693 8.88583 23.85 8.85924C23.8283 8.83024 23.7823 8.74566 23.7098 8.48949L22.9631 5.83841C22.8737 5.52424 22.8954 5.43241 22.9027 5.41308C22.9413 5.31883 23.0259 5.25599 23.1661 5.21733L23.4053 5.14966L23.3208 4.85483L21.385 5.40099L21.4672 5.69341L21.704 5.62816C21.7862 5.60399 21.8683 5.60399 21.9529 5.62333C22.0037 5.63541 22.0399 5.65716 22.0617 5.68374C22.0834 5.71274 22.1293 5.79733 22.2018 6.05349L22.9486 8.70458C23.0356 9.01874 23.0163 9.11058 23.009 9.12991C22.9728 9.22174 22.8858 9.28699 22.7456 9.32566L22.5088 9.39091L22.5909 9.68574L24.5291 9.13958L24.4445 8.84716L24.2077 8.91483Z" fill="black"/>
<path d="M32.7409 4.53583C32.4123 4.35699 31.9193 4.24099 31.2764 4.18783L29.4543 4.03799L29.4301 4.34249L29.6839 4.36424C29.8168 4.37391 29.911 4.41741 29.9666 4.49474C29.9811 4.51166 30.0222 4.59866 29.9956 4.93458L29.7684 7.67991C29.7443 7.97958 29.7008 8.06416 29.6814 8.08833C29.6186 8.17049 29.5147 8.20433 29.3697 8.19224L29.1159 8.17049L29.0894 8.47499L31.0783 8.63933C31.1967 8.64899 31.3103 8.65383 31.4214 8.65383C32.1054 8.65383 32.6515 8.47016 33.0454 8.10283C33.4514 7.72099 33.6834 7.21591 33.7342 6.60208C33.7729 6.14774 33.7004 5.72966 33.5191 5.36233C33.3379 4.99258 33.0769 4.71466 32.7409 4.53583ZM30.8124 4.65183C31.0203 4.62041 31.2064 4.61316 31.3659 4.62524C31.8419 4.66391 32.2093 4.85241 32.4872 5.20041C32.7603 5.54358 32.8763 6.00033 32.8304 6.56099C32.7844 7.11441 32.5959 7.54699 32.2673 7.84424C31.9386 8.14149 31.5544 8.26716 31.0928 8.23091C30.9381 8.21883 30.7496 8.17774 30.5273 8.11249L30.8124 4.65183Z" fill="black"/>
<path d="M40.6265 7.01049C40.7087 6.93799 40.7812 6.89691 40.8416 6.88482C40.9044 6.87516 40.9793 6.88482 41.0688 6.91624L41.1582 6.94766L41.2597 6.65766L39.8822 6.17432L39.7807 6.46191L39.8701 6.49332C39.9788 6.53199 40.0634 6.57549 40.119 6.62141C40.1432 6.64074 40.1577 6.66491 40.1673 6.69632C40.177 6.72774 40.177 6.75432 40.1673 6.78091C40.1456 6.83891 40.0779 6.96215 39.8725 7.21832L38.4974 8.95107V6.76641C38.4974 6.43049 38.524 6.28549 38.5458 6.22266C38.5651 6.16707 38.5941 6.13324 38.6376 6.1139C38.6811 6.09457 38.7512 6.0994 38.8358 6.13082L39.0315 6.19849L39.133 5.9109L37.393 5.29707L37.2915 5.58466L37.3809 5.61607C37.4752 5.64991 37.5114 5.67407 37.5259 5.68374C37.5622 5.71032 37.596 5.74657 37.6274 5.79249C37.6492 5.8239 37.6637 5.85532 37.6733 5.88915C37.6975 5.97615 37.712 6.07524 37.7168 6.17674V6.82441L36.5665 8.27199L36.5689 6.00757C36.5713 5.65716 36.5907 5.54841 36.6028 5.51699C36.6173 5.47591 36.6438 5.4469 36.6898 5.42999C36.7405 5.41065 36.8082 5.41549 36.8903 5.44449L37.0498 5.50007L37.1513 5.21249L35.4863 4.62766L35.3848 4.91524L35.4742 4.94665C35.5757 4.9829 35.6506 5.02399 35.6941 5.07232C35.7352 5.12066 35.7618 5.17624 35.7714 5.24632C35.7763 5.28015 35.7835 5.39374 35.7835 5.73449L35.8004 9.56007L36.0348 9.64224L37.7217 7.54699L37.7313 10.2416L37.9754 10.3262L40.2785 7.42616C40.4936 7.14582 40.5854 7.04432 40.6265 7.01049Z" fill="black"/>
<path d="M41.5231 11.6747C41.4966 11.6263 41.4869 11.5853 41.4917 11.5538C41.4966 11.5176 41.528 11.4258 41.6633 11.1986L43.0819 8.83751C43.2486 8.55718 43.3308 8.50885 43.3501 8.5016C43.4444 8.46535 43.5483 8.48468 43.6716 8.55718L43.8866 8.68526L44.0437 8.42426L42.3182 7.38751L42.1611 7.65093L42.3714 7.7766C42.4439 7.8201 42.5019 7.8781 42.5454 7.95301C42.5696 8.00135 42.5792 8.04001 42.5744 8.07385C42.5696 8.1101 42.5381 8.20193 42.4028 8.4291L40.9842 10.7902C40.8175 11.0705 40.7377 11.1213 40.7184 11.1285C40.6241 11.1648 40.5178 11.1454 40.3946 11.0705L40.1843 10.9424L40.0272 11.2058L41.7503 12.2402L41.9098 11.9792L41.6947 11.8511C41.6222 11.8076 41.5666 11.7496 41.5231 11.6747Z" fill="black"/>
<path d="M45.9746 12.6655C46.3153 12.6413 46.6077 12.4818 46.8446 12.1942C47.021 11.9791 47.1104 11.7399 47.1128 11.4789C47.1152 11.2227 47.0524 10.9835 46.9243 10.7684C46.7986 10.5606 46.5836 10.3286 46.2815 10.0821L45.0031 9.03323L44.8097 9.26765L45.0055 9.42957C45.1094 9.51415 45.1626 9.60357 45.165 9.69782C45.165 9.71957 45.1505 9.8114 44.9354 10.0748L43.1857 12.2039C42.9876 12.4432 42.9078 12.4842 42.8909 12.4891C42.787 12.5205 42.6831 12.4915 42.5671 12.3972L42.3713 12.2377L42.178 12.4722L43.7319 13.7506L43.9252 13.5137L43.7271 13.3494C43.6231 13.2648 43.5724 13.1778 43.57 13.0836C43.57 13.0618 43.5821 12.9676 43.7996 12.7041L44.5125 11.8342C44.5753 11.9115 44.6381 11.9816 44.6986 12.0444C44.7831 12.1338 44.8677 12.2136 44.9499 12.2812C45.2906 12.5616 45.6362 12.6896 45.9746 12.6655ZM45.7788 10.2947C45.8924 10.3551 45.9842 10.4107 46.0471 10.4639C46.1703 10.5654 46.2573 10.6838 46.3081 10.8143C46.3588 10.9448 46.3661 11.085 46.3274 11.2372C46.2887 11.3919 46.2138 11.5369 46.1075 11.6674C45.9504 11.8583 45.774 11.9622 45.5686 11.9912C45.3631 12.0178 45.194 11.9695 45.0441 11.8486C45.0006 11.8124 44.9499 11.7641 44.8943 11.7061C44.8484 11.6601 44.8025 11.607 44.7493 11.5466L45.7788 10.2947Z" fill="black"/>
<path d="M49.8413 13.4292L49.689 13.2503L45.9891 14.4152C45.6846 14.5143 45.4647 14.5553 45.3318 14.5408C45.3076 14.5384 45.2327 14.5191 45.066 14.3813L45.0031 14.3306L44.7832 14.5191L45.7789 15.6815L46.006 15.4858L45.9529 15.4157C45.803 15.2127 45.7837 15.1281 45.7837 15.1015C45.7813 15.0363 45.803 15.0097 45.82 14.9952C45.8562 14.9638 45.9408 14.9154 46.139 14.8526L46.777 14.652L47.7678 15.8096L47.4971 16.3461C47.386 16.5733 47.311 16.6627 47.27 16.6965C47.241 16.7231 47.2047 16.7328 47.1588 16.7231C47.1274 16.7158 47.0549 16.6868 46.922 16.5443L46.8591 16.479L46.6295 16.6748L47.8451 18.0933L48.0747 17.8976L48.0191 17.8275C47.9297 17.7067 47.8838 17.5907 47.8838 17.4843C47.8838 17.4046 47.92 17.2427 48.0844 16.9164L49.8413 13.4292ZM48.6547 14.0648L47.978 15.406L47.2144 14.5143L48.6547 14.0648Z" fill="black"/>
<path d="M14.2655 45.363L14.4202 45.5273C14.4661 45.5781 14.4975 45.6361 14.5144 45.7062C14.5241 45.7472 14.5241 45.7787 14.5144 45.8028C14.5023 45.827 14.4564 45.8922 14.2945 46.0445L12.4917 47.7217C12.3684 47.8352 12.3032 47.8594 12.2742 47.8642C12.2379 47.8691 12.2113 47.8642 12.1993 47.8546C12.1872 47.8377 12.192 47.7966 12.2162 47.7434C12.3177 47.5114 12.3273 47.422 12.3249 47.3712C12.3201 47.2915 12.2911 47.2214 12.2355 47.1634C12.1654 47.0885 12.0784 47.0474 11.9697 47.0402C11.8827 47.0402 11.7957 47.074 11.7135 47.1489C11.6144 47.2407 11.5685 47.3664 11.5733 47.5211C11.5806 47.6709 11.6483 47.8159 11.7763 47.9537C11.931 48.1204 12.1195 48.2171 12.3322 48.2412C12.3781 48.2461 12.424 48.2485 12.4699 48.2485C12.6246 48.2485 12.772 48.2195 12.9098 48.1591C13.0838 48.0842 13.2747 47.9488 13.4801 47.7579L14.7706 46.5568C14.9736 46.3683 15.0461 46.3514 15.0582 46.349C15.1379 46.3442 15.2153 46.3804 15.295 46.4674L15.4473 46.6317L15.6575 46.436L14.4782 45.1672L14.2655 45.363Z" fill="black"/>
<path d="M24.1932 54.8581C24.1594 54.8049 24.1135 54.6744 24.082 54.3699L23.7655 51.0736L23.5552 51.0083L21.4286 53.5144C21.2135 53.7706 21.0854 53.8648 21.0177 53.8987C21.0056 53.9035 20.9476 53.9252 20.7615 53.9011L20.6842 53.8914L20.6021 54.1524L21.8684 54.5439L21.9505 54.2732L21.8684 54.2418C21.6678 54.1645 21.6219 54.1137 21.6122 54.0992C21.5808 54.0533 21.5905 54.0292 21.5929 54.0195C21.605 53.9832 21.6412 53.9107 21.7524 53.7802L22.1149 53.3573L23.3281 53.7319L23.3764 54.2273C23.3981 54.4376 23.386 54.5342 23.374 54.5753C23.3667 54.5947 23.3546 54.6188 23.3111 54.6357C23.2942 54.643 23.2338 54.6551 23.0719 54.614L22.9849 54.5922L22.9003 54.8629L24.4397 55.339L24.5219 55.0683L24.4397 55.0369C24.3213 54.9934 24.2391 54.933 24.1932 54.8581ZM23.2942 53.3162L22.3856 53.0359L23.1758 52.1079L23.2942 53.3162Z" fill="black"/>
<path d="M34.8773 51.3225L34.945 51.6004L35.0368 51.5787C35.1359 51.5545 35.1891 51.5569 35.2132 51.5618C35.2495 51.569 35.2761 51.5811 35.2978 51.6004C35.3171 51.6198 35.3316 51.6439 35.3389 51.6729C35.3461 51.7068 35.3486 51.7986 35.2736 52.0209L34.8966 53.1278L33.9976 52.2771C33.8116 52.1007 33.7898 52.0378 33.7874 52.0258C33.7753 51.9847 33.785 51.9533 33.8188 51.9243C33.8671 51.8808 33.9203 51.8518 33.988 51.8348L34.1571 51.7938L34.0871 51.5134L32.4075 51.9243L32.4751 52.2022L32.567 52.1804C32.6322 52.1635 32.6661 52.1659 32.6806 52.1708C32.8521 52.2046 32.915 52.236 32.9367 52.2505C32.9681 52.2723 33.0455 52.3327 33.234 52.5067L34.5317 53.7198L34.7275 54.5222C34.7879 54.7687 34.771 54.8412 34.7661 54.8557C34.7371 54.9306 34.6671 54.9813 34.5486 55.0103L34.3336 55.0611L34.4012 55.3414L36.0736 54.9354L36.0035 54.6551L35.7981 54.7058C35.6845 54.7324 35.5975 54.7252 35.5371 54.6865C35.5274 54.6793 35.4742 54.6309 35.4066 54.3578L35.1987 53.5048L35.7111 51.9943C35.7715 51.8107 35.8271 51.6729 35.8754 51.5883C35.9237 51.5086 35.9793 51.4409 36.047 51.3878C36.1364 51.3177 36.1775 51.3008 36.192 51.2983L36.3515 51.2597L36.2838 50.9793L34.8773 51.3225Z" fill="black"/>
<path d="M47.5213 47.3954L47.4537 47.4534C47.3594 47.5356 47.2652 47.5815 47.1782 47.5864C47.1129 47.5888 46.9776 47.5694 46.6972 47.451L43.645 46.1605L43.4879 46.3152L44.6817 49.3795C44.8026 49.6889 44.8267 49.8459 44.8219 49.9209C44.8219 49.9378 44.8122 49.9958 44.7035 50.148L44.6576 50.2133L44.8485 50.4066L45.7934 49.481L45.5977 49.2804L45.53 49.3384C45.3657 49.4762 45.3004 49.4931 45.2835 49.4955C45.2352 49.5004 45.2158 49.4859 45.2038 49.4738C45.1772 49.4472 45.1312 49.3795 45.0684 49.2176L44.8678 48.698L45.7741 47.8111L46.2357 48.0044C46.429 48.0866 46.5087 48.1398 46.5402 48.1736C46.5522 48.1857 46.5692 48.2099 46.5619 48.2534C46.5595 48.2751 46.5426 48.3331 46.429 48.4564L46.3686 48.5216L46.5668 48.7246L47.7171 47.5984L47.5213 47.3954ZM45.3947 47.6419L44.7156 48.3089L44.2757 47.1707L45.3947 47.6419Z" fill="black"/>
<path d="M18.2675 33.2217C18.1008 33.2217 17.9606 33.2048 17.8253 33.2241C17.3323 33.299 17.0253 33.6881 16.9891 34.2488C16.9408 35.0342 17.1897 35.7447 17.5449 36.4213C18.34 37.9269 19.5 39.0434 21.095 39.6766C22.081 40.0681 23.1081 40.1309 24.1521 40.0149C24.9955 39.9207 25.8317 39.7805 26.6219 39.4518C28.4151 38.7027 29.4132 37.3469 29.5002 35.4208C29.5654 34.0216 29.1401 32.7359 28.0695 31.7499C26.6654 30.457 24.1521 30.6286 22.9848 32.0786C22.6828 32.4556 22.5813 32.7456 22.5208 33.4247C21.4503 32.8302 20.7543 31.5421 21.9819 30.4087C22.0786 30.3193 22.1825 30.2371 22.2888 30.1598C23.0598 29.6063 23.9322 29.2946 24.8481 29.0892C25.5562 28.9321 26.2498 28.7412 26.8588 28.3231C27.4146 27.9413 27.8641 27.4676 28.1178 26.8296C28.548 25.7421 28.1444 24.7464 27.069 24.2897C26.8708 24.2075 26.8249 24.1108 26.8273 23.9103C26.8467 23.0958 26.8491 22.2814 26.8467 21.467C26.8443 21.3123 26.8878 21.2713 27.0424 21.2664C28.6713 21.2253 30.0149 21.8198 31.042 23.0886C32.1102 24.4105 32.1513 26.2327 31.1798 27.7866C30.6553 28.6252 29.9642 29.3043 29.1739 29.8891C29.0265 29.9978 29.0144 30.0413 29.1739 30.1525C30.1285 30.8171 30.9864 31.5856 31.6389 32.5595C33.1493 34.8143 32.9077 37.3735 30.9985 39.3117C29.6838 40.6481 28.0743 41.4166 26.2353 41.6921C23.1371 42.1513 20.4957 41.1749 18.2216 39.0845C17.5087 38.4272 16.8248 37.7457 16.3003 36.9216C15.6623 35.9163 15.2443 34.8408 15.2902 33.6277C15.3119 33.0622 15.4424 32.5257 15.7832 32.0593C16.2738 31.3898 16.9891 31.3391 17.5594 31.936C17.9026 32.2961 18.108 32.7287 18.2675 33.2217Z" fill="black"/>
<path d="M21.2134 18.9778C21.559 19.0963 21.8925 19.2533 22.2453 19.3597C23.531 19.7415 24.7998 19.6255 26.0637 19.2533C27.1995 18.9198 28.2773 18.4317 29.3721 17.9943C30.5925 17.5061 31.8347 17.1001 33.1373 16.8705C34.2248 16.6796 35.276 16.7932 36.3273 17.0953C37.5525 17.4481 38.7173 17.9169 39.7275 18.7144C40.9769 19.698 41.6995 20.9933 41.9629 22.5497C42.1611 23.729 42.1345 24.9083 41.8808 26.0732C41.7382 26.7353 41.3515 27.2888 40.9648 27.8325C40.0852 29.0578 39.0073 30.051 37.625 30.6866C37.1779 30.892 36.7139 31.0539 36.204 31.1627C36.204 30.6262 36.204 30.0993 36.204 29.5725C36.204 29.5048 36.2499 29.4807 36.3031 29.4541C37.7603 28.7412 38.6255 27.5111 39.2176 26.0538C39.4423 25.5028 39.6526 24.947 39.6864 24.3404C39.7517 23.1925 39.4448 22.1509 38.7657 21.2302C37.8304 19.9566 36.523 19.263 35.0078 18.9368C33.8236 18.6782 32.6273 18.6613 31.4553 18.9851C30.7496 19.1784 30.0802 19.5047 29.3842 19.7463C28.0284 20.2176 26.6485 20.5849 25.2009 20.6188C23.7123 20.655 22.3831 20.2611 21.327 19.1518C21.2787 19.1035 21.2134 19.0673 21.2062 18.9899L21.2134 18.9778Z" fill="black"/>
<path d="M32.4679 38.8307C32.8884 38.9202 33.3041 39.0265 33.7294 39.0917C34.9836 39.2851 36.1992 39.2126 37.3254 38.5552C38.2437 38.0163 38.8648 37.2043 39.3385 36.2715C40.1891 34.604 40.5226 32.8253 40.4211 30.9645C40.3873 30.3748 40.3535 29.9036 40.1916 29.3308C40.1698 29.2511 40.1384 29.1786 40.2278 29.0916C40.9456 28.3787 41.4966 27.5522 41.9122 26.6314C41.9219 26.6072 41.9412 26.5855 41.963 26.5541C42.4342 27.3443 42.6976 28.0717 42.8837 28.9611C43.0891 29.935 43.123 30.9162 43.0287 31.907C42.9586 32.6054 42.9151 33.3062 42.8088 33.9998C42.5841 35.4788 41.9896 36.7935 41.0785 37.9656C40.1046 39.2174 38.7754 39.8892 37.2505 40.1792C35.9479 40.4282 34.6888 40.2662 33.5119 39.6234C33.1252 39.4156 32.7724 39.1594 32.4679 38.8307Z" fill="black"/>
<path d="M18.7508 23.6662C19.0142 23.8281 19.2752 23.9828 19.5556 24.106C19.9398 24.2752 20.3434 24.3863 20.7639 24.3912C20.9258 24.3936 20.9548 24.454 20.9524 24.6014C20.9476 26.1457 20.95 27.6923 20.95 29.2366C20.95 31.646 20.9524 34.053 20.9452 36.4624C20.9452 36.6654 21.0032 36.8152 21.1312 36.9675C21.4261 37.3107 21.6943 37.6732 21.9118 38.0719C21.9988 38.2314 22.0713 38.3958 22.1052 38.577C22.1535 38.8477 22.0278 39.0072 21.7523 39.0193C21.4092 39.0338 21.0926 38.9226 20.7881 38.7872C19.9205 38.403 19.1302 37.9052 18.5333 37.1463C18.3907 36.9651 18.2772 36.7669 18.2506 36.5301C18.224 36.257 18.34 36.0492 18.5647 35.9163C18.7049 35.8389 18.7291 35.7423 18.7291 35.5972C18.7267 31.6992 18.7267 27.8011 18.7267 23.9054C18.7267 23.8305 18.7073 23.7532 18.7508 23.6662Z" fill="black"/>
<path d="M33.6907 24.3259C34.5583 24.5773 35.3002 25.0098 35.9261 25.6382C35.9914 25.701 35.9841 25.7735 35.9841 25.8484C35.9793 27.0809 35.9745 28.3134 35.9745 29.5435C35.9745 31.8756 35.9817 34.2077 35.9817 36.5373C35.9817 36.6413 36.0131 36.7065 36.1001 36.7597C36.2669 36.8612 36.4191 36.982 36.5569 37.1222C37.0016 37.5789 36.9411 37.9898 36.3853 38.2967C36.1074 38.4489 35.8053 38.5335 35.496 38.5843C34.8845 38.6858 34.278 38.6519 33.681 38.4731C32.9681 38.258 32.8183 37.7964 33.2726 37.1995C33.3258 37.127 33.3765 37.0448 33.4466 36.9941C33.7028 36.8056 33.7487 36.5591 33.7463 36.2522C33.727 34.6451 33.7318 33.038 33.7246 31.4285C33.7149 29.1423 33.7028 26.8538 33.6907 24.5676C33.6883 24.4927 33.6907 24.4153 33.6907 24.3259Z" fill="black"/>
<path d="M26.5663 34.0264C26.5663 34.8674 26.5687 35.7084 26.5615 36.5518C26.5591 36.7113 26.6098 36.8249 26.7234 36.9337C26.9385 37.1415 27.1318 37.3711 27.272 37.6369C27.5306 38.1323 27.4049 38.4972 26.895 38.7172C26.5397 38.8718 26.1603 38.9298 25.7785 38.954C25.0221 38.9975 24.2632 39.0313 23.5213 38.8114C22.6948 38.5649 22.5257 37.9922 23.096 37.3445C23.2458 37.1753 23.4102 37.0255 23.5962 36.9022C23.7219 36.8225 23.7654 36.7258 23.7654 36.5784C23.7606 35.097 23.7678 33.6132 23.763 32.1317C23.7606 31.9795 23.8137 31.8997 23.9418 31.8248C24.7079 31.3777 25.5368 31.2013 26.4189 31.2255C26.5639 31.2303 26.5881 31.2883 26.5881 31.4164C26.5832 32.2864 26.5857 33.1564 26.5857 34.0264C26.5784 34.0264 26.5712 34.0264 26.5663 34.0264Z" fill="black"/>
<path d="M23.6857 29.0432C23.6857 28.8499 23.6857 28.6832 23.6857 28.5164C23.6929 26.4357 23.6978 24.3549 23.7026 22.2742C23.705 21.9068 23.705 21.9044 24.0506 21.7787C24.7925 21.5129 25.5586 21.3631 26.344 21.3123C26.518 21.3002 26.5518 21.3413 26.5494 21.5057C26.5325 23.1248 26.5204 24.7464 26.5083 26.368C26.5059 26.7716 26.4914 27.1752 26.5059 27.5787C26.5132 27.7793 26.431 27.9026 26.2884 28.0186C26.0057 28.2506 25.6939 28.4197 25.3459 28.5357C24.8022 28.717 24.2318 28.8064 23.6857 29.0432Z" fill="black"/>
<path d="M30.8173 20.6695C31.2233 21.0272 31.6196 21.3848 32.0353 21.7207C32.811 22.3442 33.6762 22.6802 34.6839 22.6729C35.5249 22.6657 36.3683 22.7043 37.1924 22.9001C37.9948 23.091 38.698 23.497 39.3843 23.9368C39.5197 24.0238 39.4738 24.1447 39.4665 24.2534C39.4109 24.918 39.2128 25.5439 38.9421 26.1481C38.8672 26.3172 38.7874 26.4816 38.7028 26.6628C37.8884 25.8025 36.929 25.2007 35.8874 24.7247C35.218 24.4177 34.5075 24.2099 33.8212 23.9489C33.1808 23.7048 32.5645 23.4197 32.0377 22.9726C31.3272 22.3708 30.9502 21.5854 30.8173 20.6695Z" fill="black"/>
<path d="M17.499 20.3433C17.8156 20.7541 18.1104 21.1021 18.4609 21.4018C19.5024 22.2983 20.7059 22.569 22.0399 22.3418C22.4459 22.2742 22.8399 22.1654 23.2241 22.0228C23.3667 21.9697 23.4199 21.9745 23.4174 22.1461C23.4126 22.7648 23.4199 23.3834 23.4247 24.0021C23.4247 24.0939 23.4247 24.1592 23.3014 24.1688C22.1173 24.2534 20.9404 24.2558 19.8069 23.8184C18.5092 23.3206 17.8204 22.3394 17.586 21.0006C17.5498 20.8048 17.5329 20.6018 17.499 20.3433Z" fill="black"/>
<path d="M30.4572 29.4782C31.0879 29.6522 31.7138 29.8093 32.3542 29.9012C32.6853 29.9471 33.0164 29.9809 33.3499 29.9809C33.4877 29.9809 33.5263 30.0317 33.5215 30.1646C33.5118 30.4691 33.5167 30.776 33.5215 31.0829C33.5215 31.1772 33.5046 31.2279 33.3934 31.2062C32.2237 30.9548 31.2232 30.4111 30.4572 29.4782Z" fill="black"/>
<path d="M30.4572 29.4782C31.0879 29.6522 31.7138 29.8093 32.3542 29.9012C32.6853 29.9471 33.0164 29.9809 33.3499 29.9809C33.4877 29.9809 33.5263 30.0317 33.5215 30.1646C33.5191 30.2419 33.5167 30.3192 33.5167 30.3942C33.5167 30.3942 31.5688 30.4546 30.4572 29.4782Z" fill="url(#paint0_linear_5_152)"/>
<path d="M21.2061 18.9899C21.1892 18.9803 21.1723 18.973 21.1554 18.9658C21.1626 18.9585 21.1699 18.9513 21.1747 18.944C21.1868 18.9561 21.1989 18.9658 21.2134 18.9778L21.2061 18.9899Z" fill="black"/>
</g>
<defs>
<linearGradient id="paint0_linear_5_152" x1="30.4572" y1="29.9374" x2="33.5215" y2="29.9374" gradientUnits="userSpaceOnUse">
<stop stop-color="#847424"/>
<stop offset="0.258824" stop-color="#E5D71A"/>
<stop offset="0.65098" stop-color="#E5D71A"/>
<stop offset="0.85098" stop-color="#E5D71A"/>
<stop offset="0.980392" stop-color="#847424"/>
<stop offset="1" stop-color="#847424"/>
</linearGradient>
<clipPath id="clip0_5_152">
<rect width="58" height="58" fill="white" transform="translate(0.592041 0.5)"/>
</clipPath>
</defs>
</svg>
