<svg width="107" height="37" viewBox="0 0 107 37" fill="none" xmlns="http://www.w3.org/2000/svg">
<path d="M0.902596 0.104027L0.592041 36.7018H8.4335L8.45506 0.147148L0.902596 0.104027Z" fill="black"/>
<path d="M8.37524 17.853L22.5226 36.8096L32.8334 36.8528L17.6681 18.0471L32.4194 0.104008L22.5442 0.0608826L8.37524 17.853Z" fill="black"/>
<path d="M64.5853 17.2492C64.5853 17.2492 68.2278 14.7906 68.2494 10.0029L68.2515 9.26969C67.5657 0.837318 58.9975 0.0825005 58.9975 0.0825005L37.0669 0.0178032L36.9353 36.8312L60.1362 36.9822C60.1362 36.9822 68.9977 36.7234 70.0631 26.4148L70.0652 25.6815C70.0868 20.8939 64.5853 17.2492 64.5853 17.2492ZM44.449 5.8838C44.449 5.8838 52.0014 5.5603 56.0667 6.0132C60.1319 6.46608 60.1146 10.2617 60.1146 10.2617C59.2218 14.8985 56.03 14.4456 56.03 14.4456L44.408 14.4024L44.449 5.8838ZM56.5346 31.0084L44.3347 30.9437L44.3821 20.3547L56.4376 20.3978C56.4376 20.3978 61.8097 20.7213 61.497 25.9403C61.2145 30.5771 56.5346 31.0084 56.5346 31.0084Z" fill="black"/>
<path d="M103.73 0.34124L82.3796 0.190277C82.3796 0.190277 72.2112 0.858826 72.3125 10.7361C72.4117 20.6134 83.5981 20.3762 84.0294 20.6781L90.8573 20.5487C90.8573 20.5487 96.3782 20.4409 97.3746 24.5169C98.3731 28.5713 94.4437 30.7495 94.4437 30.7495L92.699 31.1593L73.9623 31.073L73.9364 36.7449L95.7226 36.8528C95.7226 36.8528 105.02 36.594 106.368 27.2989C107.718 18.0255 98.2911 15.0709 98.2911 15.0709L94.0792 14.769L84.7842 14.6612C84.7842 14.6612 80.8678 13.9711 81.0296 10.197C81.1913 6.4229 85.5498 6.01313 85.5498 6.01313H103.706L103.73 0.34124Z" fill="black"/>
</svg>
