<svg width="155" height="59" viewBox="0 0 155 59" fill="none" xmlns="http://www.w3.org/2000/svg">
<g clip-path="url(#clip0_5_335)">
<path d="M54.6389 58.145H56.7074L58.6204 43.9416H56.5639L54.6389 58.145Z" fill="black"/>
<path d="M70.5532 49.0738H69.214L69.9075 43.9416H67.851L66.5119 53.8083H62.1238L62.5303 50.8188H65.4836L66.3325 44.5318H61.3227L61.0477 46.5334H64.001L63.6901 48.8044H60.7369L59.9717 54.437C59.9597 54.5268 59.9358 54.7577 59.9597 54.9117C60.0314 55.4249 60.3303 55.8098 60.8445 55.8098H66.2488L65.938 58.145H68.0064L68.963 51.0754H70.3021L69.3456 58.145H71.4021L73.3271 43.9416H71.2706L70.5532 49.0738Z" fill="black"/>
<path d="M117.733 53.8316H123.186L122.6 58.1427H124.656L125.242 53.8316H130.658L130.921 51.8173H118.008L117.733 53.8316Z" fill="black"/>
<path d="M121.559 47.0064C121.655 46.5317 122.062 46.134 122.755 45.8517C123.329 45.6207 124.034 45.5053 124.847 45.5053C125.003 45.5053 125.17 45.5053 125.338 45.5181C126.366 45.5694 127.167 45.7747 127.729 46.134C128.303 46.4932 128.542 46.9423 128.446 47.4555C128.351 47.9174 127.956 48.3023 127.275 48.5718C126.713 48.7899 126.019 48.9054 125.218 48.9054C125.063 48.9054 124.895 48.9053 124.716 48.8925C123.7 48.8412 122.887 48.6359 122.313 48.2767C121.727 47.9174 121.464 47.4812 121.559 47.0064ZM120.34 49.4314C121.213 50.1371 122.576 50.5477 124.369 50.6375C124.608 50.6503 124.847 50.6631 125.075 50.6631C126.557 50.6631 127.801 50.3937 128.781 49.8548C129.893 49.2518 130.563 48.4435 130.742 47.4812C130.838 46.9936 130.802 46.5445 130.634 46.134C130.467 45.7234 130.168 45.3256 129.738 44.9792C128.865 44.2735 127.514 43.863 125.72 43.7731C125.481 43.7603 125.242 43.7603 125.027 43.7603C123.544 43.7603 122.301 44.0298 121.32 44.5686C120.196 45.1717 119.527 45.9672 119.347 46.9166C119.252 47.4042 119.288 47.8661 119.455 48.2767C119.598 48.7001 119.897 49.085 120.34 49.4314Z" fill="black"/>
<path d="M114.362 49.0732H113.023L113.716 43.941H111.66L110.32 53.8077H105.825L106.805 46.5456H109.675L109.95 44.5441H105.012L103.673 54.462C103.661 54.5519 103.637 54.7828 103.661 54.9368C103.732 55.45 104.031 55.8349 104.545 55.8349H110.057L109.746 58.1701H111.815L112.771 51.1005H114.087L113.13 58.1701H115.199L117.124 43.9667H115.055L114.362 49.0732Z" fill="black"/>
<path d="M79.0421 50.5359C78.9226 51.6907 78.7073 52.6786 78.4084 53.4484C78.1095 54.2311 77.7628 54.6417 77.3802 54.6417C76.9976 54.6288 76.7345 54.2311 76.591 53.4356C76.4595 52.6658 76.4476 51.6907 76.5671 50.5231C76.6867 49.3683 76.9019 48.3804 77.2008 47.6106C77.4997 46.8279 77.8465 46.4173 78.2291 46.4173C78.6117 46.4302 78.8747 46.8279 79.0182 47.6234C79.1497 48.4061 79.1617 49.3812 79.0421 50.5359ZM82.8084 43.941L82.1149 49.0732H81.8041H81.0389V48.9963C81.0389 48.9834 81.0389 48.9706 81.0389 48.9578V48.9321C81.0508 47.7004 80.8834 46.6868 80.5486 45.9041C80.0823 44.8263 79.3889 44.2746 78.4802 44.2746H78.4562H78.4323C77.5117 44.2746 76.6986 44.8392 76.0052 45.9426C75.3117 47.0588 74.8454 48.6113 74.6541 50.5487C74.4508 52.5118 74.5823 54.0643 75.0486 55.1549C75.5149 56.2326 76.2084 56.7844 77.1171 56.7844H77.141H77.165C78.0856 56.7844 78.8986 56.2198 79.5921 55.1164C80.2139 54.1284 80.6443 52.7812 80.8715 51.1389L80.8834 51.0748H81.8041H81.8399L80.8834 58.1444H82.9399L84.8649 43.941H82.8084Z" fill="black"/>
<path d="M83.9443 58.145H86.0009L87.89 44.2111L87.9259 43.9416H85.8574L83.9443 58.145Z" fill="black"/>
<path d="M97.061 53.5885C97.037 53.4473 97.0251 53.2677 97.037 53.0752C97.049 52.8315 97.0729 52.6133 97.0968 52.5235H94.7055C94.6936 52.6775 94.6577 52.8315 94.6218 52.9854C94.574 53.1907 94.5023 53.4088 94.4186 53.6141C93.9283 54.7175 92.6251 56.1289 89.1816 56.6549L90.2577 58.3614C90.4011 58.3357 91.2381 58.1946 92.2544 57.7969C93.2827 57.3863 94.6936 56.6293 95.6142 55.3077L95.6501 55.2564L95.674 55.3077C95.674 55.3077 95.9131 55.8338 96.5588 56.4753C97.1446 57.0527 98.1968 57.861 99.8707 58.3357L101.174 56.7576C100.959 56.6934 100.122 56.4368 99.261 55.9878C97.9457 55.3206 97.1805 54.4866 97.061 53.5885Z" fill="black"/>
<path d="M98.5794 51.935L99.6554 43.9416H97.5989L97.2761 46.3281H95.4587L95.1957 48.2655H97.0131L96.5109 51.935H98.5794Z" fill="black"/>
<path d="M99.5474 51.935H101.616L102.692 43.9416H100.635L99.5474 51.935Z" fill="black"/>
<path d="M90.8913 51.2151C90.9032 51.2151 90.9032 51.2022 90.9152 51.2022C90.9271 51.1894 90.9391 51.1766 90.963 51.1637C92.0869 50.1245 92.8641 49.0467 92.8641 49.0467C92.8641 49.0467 93.4978 50.5094 94.4423 51.677C94.5021 51.7411 94.526 51.7796 94.526 51.7796L96.0326 50.6377C95.5902 50.163 95.2434 49.6369 95.0282 49.2648C94.9445 49.1237 94.8608 48.9826 94.7891 48.8158C94.7173 48.6618 94.6456 48.495 94.5858 48.3282C94.5858 48.3154 94.5739 48.2897 94.5739 48.2769C94.526 48.1229 94.4782 47.9561 94.4423 47.8021C94.4423 47.7893 94.4423 47.7765 94.4304 47.7637C94.4304 47.7508 94.4304 47.738 94.4184 47.7252C94.1315 46.378 94.3228 44.9409 94.4065 44.4021H92.2543C92.2543 44.4021 92.1945 46.3138 91.6804 47.3531C91.3097 48.0716 90.7597 48.8799 89.5163 49.9448C89.2293 50.2014 88.9304 50.4452 88.6434 50.6633L89.851 52.1132C89.8391 52.0875 90.2815 51.7668 90.8913 51.2151Z" fill="black"/>
<path d="M48.9003 46.5308H51.9252L50.9448 53.7929H47.9198L48.9003 46.5308ZM45.7677 54.4344C45.7557 54.5242 45.7318 54.768 45.7437 54.922C45.8155 55.4352 46.1144 55.8201 46.6285 55.8201H52.7383L54.2687 44.5421H47.1187L45.7677 54.4344Z" fill="black"/>
<path d="M154.5 0.625C151.977 11.8004 142.95 17.8948 137.641 21.1538L137.414 20.8202C139.59 18.9213 147.063 13.0064 149.454 3.1911L154.5 0.625Z" fill="black"/>
<path d="M23.3131 22.1029C23.1696 23.1165 21.2446 37.5508 21.0652 38.898H25.3816C25.5131 37.8716 27.45 23.4373 27.6294 22.1029H23.3131Z" fill="black"/>
<path d="M58.6087 22.1029C58.4771 23.1165 56.5402 37.5508 56.3608 38.898H66.476C66.5717 38.1538 66.8347 36.2164 66.9543 35.2798H60.8326L61.2511 32.1748H66.8108C66.9065 31.4563 67.1456 29.7114 67.2652 28.7876H61.7054L62.1119 25.7211H68.0782C68.1739 24.9769 68.4369 23.0395 68.5565 22.1029H58.6087Z" fill="black"/>
<path d="M10.5673 31.7258C10.5673 31.7258 14.1781 22.8727 14.4531 22.1029H19.8814C19.8814 23.2833 19.164 37.7176 19.164 38.898H15.2542L15.8999 27.1325C15.8999 27.1325 11.4999 38.1538 11.2129 38.898H8.1401L6.75314 27.1325C6.64553 27.6713 5.18683 35.5236 4.38575 38.898H0.499878C0.9064 37.3968 3.88357 22.9625 4.11075 22.1029H9.3477L10.5673 31.7258Z" fill="black"/>
<path d="M47.3332 32.0337L49.8082 25.7981L50.6093 32.0337H47.3332ZM51.0278 35.4979C51.0278 35.4979 51.3028 38.2436 51.4104 38.898H55.5474C55.3202 37.5123 53.0604 23.078 52.893 22.1029H47.6561C47.3572 22.7958 41.3789 37.2429 40.6735 38.898H44.8822C45.1093 38.3335 46.1615 35.5108 46.1615 35.5108L51.0278 35.4979Z" fill="black"/>
<path d="M33.6438 25.2592H34.6003C35.2579 25.2592 35.9873 25.3362 36.4416 25.9007C36.7644 26.2985 36.884 26.863 36.7883 27.5944C36.7883 27.5944 36.6568 28.8774 35.8677 29.2751C35.8677 29.2751 35.3296 29.6601 34.4209 29.6857H32.472L36.1427 38.9108H40.3275L37.159 31.8284C39.072 31.4435 40.5786 30.8405 40.9492 27.6457C40.997 27.2479 41.0329 26.863 41.0329 26.5038C41.0329 25.3234 40.7459 24.3739 40.172 23.6554C39.1318 22.3723 37.3503 22.1029 36.0351 22.1029H30.1166C29.9851 23.1165 28.0481 37.5508 27.8688 38.898H31.7905C31.9579 37.9614 33.6438 25.2592 33.6438 25.2592Z" fill="black"/>
<path d="M118.307 28.7607C118.391 28.7512 118.463 28.7323 118.535 28.7228C118.463 28.7323 118.379 28.7512 118.307 28.7607Z" fill="black"/>
<path d="M120.053 28.3399C119.731 28.4169 119.396 28.5067 119.061 28.5965C119.384 28.5195 119.719 28.4297 120.053 28.3399Z" fill="black"/>
<path d="M109.902 30.4382C109.921 30.4382 109.94 30.4382 109.959 30.4288C109.95 30.4382 109.921 30.4382 109.902 30.4382Z" fill="black"/>
<path d="M121.069 28.0707C120.878 28.122 120.675 28.1862 120.483 28.2375C120.686 28.1734 120.878 28.122 121.069 28.0707Z" fill="black"/>
<path d="M112.628 29.981C112.599 29.9904 112.571 29.9999 112.533 29.9999C112.571 29.9904 112.599 29.9904 112.628 29.981Z" fill="black"/>
<path d="M111.408 30.2137C111.325 30.2231 111.253 30.2326 111.169 30.2421C111.253 30.2231 111.325 30.2137 111.408 30.2137Z" fill="black"/>
<path d="M126.797 26.272C126.354 26.4388 125.9 26.5799 125.422 26.7339C125.9 26.5799 126.354 26.4388 126.797 26.272Z" fill="black"/>
<path d="M125.206 26.8252C125.015 26.8893 124.812 26.9535 124.608 27.0176C124.812 26.9406 125.015 26.8765 125.206 26.8252Z" fill="black"/>
<path d="M124.37 27.0804C123.724 27.2856 123.066 27.4909 122.373 27.6962C123.066 27.4909 123.724 27.2856 124.37 27.0804Z" fill="black"/>
<path d="M122.05 27.7877C121.859 27.839 121.656 27.9031 121.452 27.9545C121.656 27.9031 121.847 27.839 122.05 27.7877Z" fill="black"/>
<path d="M100.762 31.4828C100.743 31.4828 100.715 31.4922 100.695 31.4922C100.724 31.4922 100.743 31.4922 100.762 31.4828Z" fill="black"/>
<path d="M101.989 31.3907C101.96 31.3907 101.941 31.3907 101.903 31.4001C101.941 31.3907 101.97 31.3907 101.989 31.3907Z" fill="black"/>
<path d="M125.195 22.1024C125.099 22.7953 124.788 25.0149 124.645 26.0927C127.694 25.1817 131.364 23.873 134.772 22.1024H125.195Z" fill="black"/>
<path d="M96.8221 29.5566C96.4395 29.2486 95.9971 28.9535 95.4949 28.7098C95.483 28.6969 94.359 28.1067 94.359 28.1067H94.3471L94.3232 28.0939C93.9525 27.8758 93.1036 27.3369 93.1036 26.4388C93.1036 26.0025 93.271 25.6176 93.558 25.361C93.9167 25.0531 94.4667 24.9248 95.0525 25.0402C95.7938 25.1685 96.6427 25.6818 97.5754 26.5414C98.0177 25.6304 98.8667 23.8727 99.1775 23.244C98.1014 22.2945 97.0612 21.7941 95.5188 21.499C93.6058 21.1911 91.7645 21.6273 90.4612 22.6794C89.3732 23.5776 88.6917 24.8863 88.5123 26.4772C88.4884 26.7467 88.4764 27.0033 88.4764 27.2599C88.4764 28.0041 88.596 28.6584 88.8351 29.223C88.9308 29.2358 89.0145 29.2358 89.1101 29.2486C91.0471 29.3898 93.7373 29.5181 96.8221 29.5566Z" fill="black"/>
<path d="M117.208 25.7206H123.174C123.27 24.9764 123.533 23.039 123.664 22.1024H113.716C113.657 22.5387 113.274 25.3999 112.844 28.646C114.219 28.4535 115.582 28.2482 116.909 27.9916L117.208 25.7206Z" fill="black"/>
<path d="M126.797 26.2734C126.355 26.4402 125.9 26.5813 125.434 26.7353C125.362 26.7609 125.29 26.7866 125.207 26.8123C125.015 26.8764 124.824 26.9406 124.621 27.0047C124.537 27.0304 124.453 27.056 124.382 27.0817C123.736 27.287 123.078 27.4923 122.385 27.6976C122.277 27.7232 122.17 27.7617 122.05 27.7874C121.859 27.8387 121.656 27.9028 121.452 27.9542C121.321 27.9927 121.201 28.0311 121.07 28.0568C120.878 28.1081 120.675 28.1723 120.484 28.2236C120.34 28.2621 120.197 28.3006 120.053 28.3391C119.731 28.4161 119.396 28.5059 119.061 28.5957C118.894 28.6342 118.726 28.6727 118.547 28.724C118.463 28.7368 118.392 28.7625 118.308 28.7881C116.538 29.2116 114.661 29.6221 112.664 29.9942C112.628 30.007 112.593 30.007 112.545 30.007C112.174 30.084 111.792 30.1482 111.421 30.2123C111.337 30.2252 111.265 30.2252 111.182 30.2508C110.787 30.3278 110.393 30.392 109.998 30.4433C109.974 30.4433 109.95 30.4561 109.926 30.4561C107.786 30.7897 105.526 31.0848 103.159 31.3029H103.123C102.764 31.3414 102.406 31.3671 102.035 31.4056C101.999 31.4056 101.963 31.4056 101.927 31.4184C101.557 31.4441 101.174 31.4825 100.803 31.4954C100.78 31.4954 100.744 31.5082 100.72 31.5082C100.325 31.5339 99.9426 31.5595 99.5481 31.5852C99.5241 31.5852 99.5122 31.5852 99.4883 31.5852C99.0937 31.6108 98.6872 31.6365 98.2807 31.6493H98.2568C96.272 31.752 94.2155 31.8161 92.0872 31.8161H91.9437C91.4655 31.8161 90.9752 31.8033 90.485 31.8033C90.4013 31.8033 90.3176 31.8033 90.222 31.8033C88.5002 31.7776 86.7426 31.7135 84.9372 31.6109H84.9133C82.1872 31.4569 79.3774 31.2131 76.4839 30.8539L79.8198 27.4923C79.8198 27.4923 81.7568 28.121 84.447 28.6342C83.9328 25.3881 83.4905 22.5269 83.4187 22.1163H78.1818C77.8829 22.8091 71.9046 37.2563 71.1992 38.9114H75.3959C75.6111 38.3468 77.0339 34.7415 77.0339 34.7415H81.41C81.41 34.7415 81.8285 38.257 81.9242 38.9242H86.0611C85.9774 38.3853 85.5709 35.8449 85.1165 32.9067C88.0698 33.0864 91.0231 33.112 93.7731 33.0735C93.9165 33.3173 93.9883 33.5867 93.9883 33.8818C93.9883 33.9845 93.9763 34.0871 93.9644 34.1898C93.9046 34.5619 93.7252 34.8698 93.4383 35.0879C92.8644 35.5241 92.0513 35.4215 91.4774 35.3189C90.1383 35.0751 89.0861 33.9845 88.2252 33.0864C87.6872 34.023 86.5633 35.9989 86.2046 36.6404C87.7828 38.1801 89.4807 39.1295 91.2861 39.3989C93.1155 39.694 94.9209 39.245 96.26 38.1929C97.4318 37.2563 98.1611 35.9091 98.3883 34.2796C98.46 33.8049 98.4959 33.3686 98.472 32.9452C101.425 32.8169 103.876 32.6116 105.455 32.4705C105.969 32.8682 106.232 33.343 106.232 33.8947C106.232 33.9973 106.22 34.1 106.208 34.2026C106.148 34.5747 105.957 34.8826 105.67 35.1007C105.096 35.537 104.283 35.4343 103.721 35.3317C102.382 35.0879 101.318 33.9973 100.457 33.0992C99.9187 34.0358 98.7948 36.0117 98.4361 36.6532C100.014 38.1929 101.724 39.1423 103.53 39.4118C105.359 39.7069 107.164 39.2578 108.492 38.2057C109.663 37.2691 110.405 35.9219 110.632 34.2924C110.775 33.3815 110.739 32.5603 110.536 31.829C111.206 31.7392 111.851 31.6237 112.461 31.521C111.995 35.0494 111.552 38.3468 111.469 38.9499H121.584C121.68 38.2057 121.943 36.2683 122.062 35.3189H115.94L116.359 32.2139H121.919C122.014 31.5724 122.206 30.0969 122.337 29.1346C123.09 28.878 123.473 28.724 123.473 28.724C123.473 28.724 125.35 28.121 127.789 27.1587C127.431 29.7889 126.367 37.8336 126.211 38.937H130.587C130.719 37.9491 132.285 26.3119 132.285 26.3119H135.453C135.537 25.5934 135.848 23.2839 135.992 22.2446C134.33 23.1812 131.233 24.7209 126.797 26.2734Z" fill="black"/>
<path d="M107.738 28.7116C107.715 28.6987 106.603 28.0957 106.603 28.0957H106.591L106.579 28.0829C106.208 27.8519 105.347 27.3259 105.347 26.4277C105.347 25.9915 105.515 25.6066 105.801 25.35C106.16 25.0292 106.71 24.9137 107.284 25.0292C108.025 25.1575 108.874 25.6707 109.819 26.5304C110.261 25.6194 111.11 23.8616 111.421 23.233C110.345 22.2835 109.305 21.7831 107.762 21.488C105.849 21.1929 104.008 21.6163 102.705 22.6812C101.605 23.5794 100.935 24.8881 100.756 26.4791C100.732 26.7485 100.708 27.0179 100.708 27.2617C100.708 28.1342 100.887 28.8912 101.222 29.5327C103.554 29.4814 106.005 29.3531 108.48 29.135C108.241 28.981 108.001 28.827 107.738 28.7116Z" fill="black"/>
</g>
<defs>
<clipPath id="clip0_5_335">
<rect width="154" height="57.75" fill="white" transform="translate(0.499878 0.625)"/>
</clipPath>
</defs>
</svg>
