<svg width="74" height="73" viewBox="0 0 74 73" fill="none" xmlns="http://www.w3.org/2000/svg">
<path fill-rule="evenodd" clip-rule="evenodd" d="M18.1699 47.9079C17.6856 50.5683 19.0467 51.4244 21.4109 51.4244C23.0865 51.4244 24.9664 50.7886 25.3452 49.1107C25.7215 47.4776 23.7922 46.9271 21.5015 46.2735L21.5014 46.2735C20.9975 46.1297 20.4762 45.981 19.958 45.8146C17.0842 44.8918 14.2471 43.4412 15.1882 39.2911C16.3083 34.3515 21.4408 32.4165 25.4485 32.4165C29.6972 32.4165 33.4822 34.604 32.3529 39.7066H26.7913C27.3467 37.6408 25.6711 36.9797 23.968 36.9797C22.7698 36.9797 21.1745 37.4204 20.8394 38.9124C20.5259 40.2878 22.3353 40.7791 24.5363 41.3767C25.1234 41.5361 25.7383 41.7031 26.3483 41.8964C29.245 42.8145 31.9857 44.3318 31.0629 48.4175C29.7615 54.1559 24.7392 55.9922 20.0452 55.9922C15.1377 55.9922 11.3228 53.7129 12.599 47.9171L18.1699 47.9079ZM56.6631 32.8917H62.2248L57.0992 55.5079H51.5329L56.6631 32.8917ZM46.3753 32.894H36.3882L31.2626 55.517H41.5206C46.0975 55.517 50.2085 53.8644 51.4251 48.4772C52.0058 45.9132 51.0739 43.813 48.9576 43.1244C50.8329 42.2361 52.3432 40.5903 52.8023 38.5635C53.8765 33.8419 50.0685 32.832 46.3753 32.894ZM44.2383 41.7954H39.9322L40.9146 37.4525H45.2184C46.3845 37.4525 47.3531 38.0264 46.9927 39.64C46.6324 41.2537 45.1955 41.7954 44.2383 41.7954ZM42.3515 50.7886H37.8916L39.0691 45.6011H43.5267C45.2024 45.6011 46.3753 46.2667 45.9162 48.2637C45.4893 50.1206 44.1143 50.7886 42.3515 50.7886Z" fill="#181717"/>
<path d="M69.9945 23.813C66.9187 15.6461 49.3225 14.7142 30.6979 21.7288C17.4147 26.7327 7.19801 34.429 3.5415 41.3977C8.5913 36.1184 16.7582 30.9309 26.6076 27.217C45.2345 20.2001 62.8284 21.1343 65.9042 29.3035C66.7902 31.6448 66.3793 34.328 64.908 37.133C69.4115 32.4321 71.4429 27.66 69.9945 23.8199" fill="#181717"/>
</svg>
